IBM Plex Sans Var-Thin.ufo
<glyph name="dollar" format="1">
  <advance width="547"/>
  <unicode hex="0024"/>
  <outline>
    <contour>
      <point x="288" y="-82" type="line"/>
      <point x="288" y="6" type="line"/>
      <point x="288" y="14" type="line"/>
      <point x="288" y="684" type="line"/>
      <point x="288" y="692" type="line"/>
      <point x="288" y="780" type="line"/>
      <point x="268" y="780" type="line"/>
      <point x="268" y="692" type="line"/>
      <point x="268" y="684" type="line"/>
      <point x="268" y="14" type="line"/>
      <point x="268" y="6" type="line"/>
      <point x="268" y="-82" type="line"/>
    </contour>
    <contour>
      <point x="276" y="0" type="curve" smooth="yes"/>
      <point x="411" y="0"/>
      <point x="489.0" y="66.0"/>
      <point x="489.0" y="185.0" type="curve" smooth="yes"/>
      <point x="489.0" y="265.0"/>
      <point x="457" y="338"/>
      <point x="313" y="364" type="curve" smooth="yes"/>
      <point x="246" y="376" type="line" smooth="yes"/>
      <point x="157" y="392"/>
      <point x="80.0" y="425.0"/>
      <point x="80.0" y="530.0" type="curve" smooth="yes"/>
      <point x="80.0" y="629.0"/>
      <point x="146" y="678"/>
      <point x="275" y="678" type="curve" smooth="yes"/>
      <point x="363" y="678"/>
      <point x="422" y="644"/>
      <point x="459.0" y="590.0" type="curve"/>
      <point x="477.0" y="603.0" type="line"/>
      <point x="441" y="656"/>
      <point x="376" y="698"/>
      <point x="275" y="698" type="curve" smooth="yes"/>
      <point x="137" y="698"/>
      <point x="58.0" y="643.0"/>
      <point x="58.0" y="530.0" type="curve" smooth="yes"/>
      <point x="58.0" y="451.0"/>
      <point x="98" y="382"/>
      <point x="239" y="357" type="curve" smooth="yes"/>
      <point x="307" y="345" type="line" smooth="yes"/>
      <point x="391" y="330"/>
      <point x="467.0" y="299.0"/>
      <point x="467.0" y="184.0" type="curve" smooth="yes"/>
      <point x="467.0" y="80.0"/>
      <point x="402" y="20"/>
      <point x="276" y="20" type="curve" smooth="yes"/>
      <point x="166" y="20"/>
      <point x="108" y="65"/>
      <point x="60.0" y="127.0" type="curve"/>
      <point x="42.0" y="114.0" type="line"/>
      <point x="91" y="50"/>
      <point x="157" y="0"/>
    </contour>
  </outline>
</glyph>
<glyph name="ampersand" format="1">
  <advance width="677"/>
  <unicode hex="0026"/>
  <outline>
    <contour>
      <point x="612" y="0" type="line"/>
      <point x="640" y="0" type="line"/>
      <point x="507" y="135" type="line"/>
      <point x="532" y="191"/>
      <point x="542" y="257"/>
      <point x="544" y="331" type="curve"/>
      <point x="634" y="331" type="line"/>
      <point x="634" y="351" type="line"/>
      <point x="525" y="351" type="line"/>
      <point x="525" y="275"/>
      <point x="516" y="203"/>
      <point x="493" y="149" type="curve"/>
      <point x="273" y="367" type="line"/>
      <point x="391" y="422"/>
      <point x="469" y="473"/>
      <point x="469" y="570" type="curve" smooth="yes"/>
      <point x="469" y="648"/>
      <point x="408" y="710"/>
      <point x="309" y="710" type="curve" smooth="yes"/>
      <point x="205" y="710"/>
      <point x="140" y="647"/>
      <point x="140" y="554" type="curve" smooth="yes"/>
      <point x="140" y="488"/>
      <point x="176" y="440"/>
      <point x="239" y="371" type="curve"/>
      <point x="147" y="327"/>
      <point x="70" y="277"/>
      <point x="70" y="166" type="curve" smooth="yes"/>
      <point x="70" y="59"/>
      <point x="149" y="-12"/>
      <point x="271" y="-12" type="curve" smooth="yes" name=""/>
      <point x="376" y="-12.0"/>
      <point x="454" y="39"/>
      <point x="496" y="115" type="curve"/>
      <point x="498" y="115" type="line"/>
    </contour>
    <contour>
      <point x="309" y="691" type="curve" smooth="yes"/>
      <point x="382" y="691"/>
      <point x="446" y="648"/>
      <point x="446" y="574" type="curve" smooth="yes"/>
      <point x="446" y="560" type="line" smooth="yes"/>
      <point x="446" y="484"/>
      <point x="368" y="430"/>
      <point x="259" y="380" type="curve"/>
      <point x="206" y="437"/>
      <point x="163" y="489"/>
      <point x="163" y="546" type="curve" smooth="yes"/>
      <point x="163" y="564" type="line" smooth="yes"/>
      <point x="163" y="635"/>
      <point x="217" y="691"/>
    </contour>
    <contour>
      <point x="271" y="8" type="curve" smooth="yes" name=""/>
      <point x="168" y="8"/>
      <point x="93" y="66"/>
      <point x="93" y="156" type="curve" smooth="yes"/>
      <point x="93" y="176" type="line" smooth="yes"/>
      <point x="93" y="273"/>
      <point x="166" y="315"/>
      <point x="253" y="358" type="curve"/>
      <point x="483" y="129" type="line"/>
      <point x="442" y="52"/>
      <point x="372" y="8"/>
    </contour>
  </outline>
</glyph>
<glyph name="asterisk" format="1">
  <advance width="362"/>
  <unicode hex="002A"/>
  <outline>
    <contour>
      <point x="171" y="747" type="line"/>
      <point x="173" y="592" type="line"/>
      <point x="171" y="590" type="line"/>
      <point x="23" y="640" type="line"/>
      <point x="17" y="621" type="line"/>
      <point x="166" y="576" type="line"/>
      <point x="167" y="574" type="line"/>
      <point x="73" y="447" type="line"/>
      <point x="88" y="436" type="line"/>
      <point x="180" y="565" type="line" name=""/>
      <point x="182" y="565" type="line"/>
      <point x="274" y="436" type="line"/>
      <point x="289" y="447" type="line"/>
      <point x="195" y="574" type="line"/>
      <point x="196" y="576" type="line"/>
      <point x="345" y="621" type="line"/>
      <point x="339" y="640" type="line"/>
      <point x="191" y="590" type="line"/>
      <point x="189" y="592" type="line"/>
      <point x="191" y="747" type="line"/>
    </contour>
  </outline>
</glyph>
<glyph name="hyphen" format="1">
  <advance width="395"/>
  <unicode hex="002D"/>
  <outline>
    <contour>
      <point x="312" y="295" type="line" name="hr00"/>
      <point x="312" y="315" type="line"/>
      <point x="83" y="315" type="line"/>
      <point x="83" y="295" type="line"/>
    </contour>
  </outline>
</glyph>
<glyph name="slash" format="1">
  <advance width="313"/>
  <unicode hex="002F"/>
  <outline>
    <contour>
      <point x="33" y="-151" type="line" name="hr00"/>
      <point x="271" y="740" type="line"/>
      <point x="251" y="740" type="line"/>
      <point x="13" y="-151" type="line"/>
    </contour>
  </outline>
</glyph>
<glyph name="one" format="1">
  <advance width="600"/>
  <unicode hex="0031"/>
  <outline>
    <contour>
      <point x="545" y="0" type="line" name="hr00"/>
      <point x="545" y="20" type="line"/>
      <point x="334" y="20" type="line"/>
      <point x="334" y="698" type="line"/>
      <point x="296" y="698" type="line"/>
      <point x="80" y="517" type="line"/>
      <point x="93" y="501" type="line"/>
      <point x="309" y="682" type="line"/>
      <point x="312" y="682" type="line"/>
      <point x="312" y="20" type="line"/>
      <point x="93" y="20" type="line"/>
      <point x="93" y="0" type="line"/>
    </contour>
  </outline>
</glyph>
<glyph name="four" format="1">
  <advance width="600"/>
  <unicode hex="0034"/>
  <outline>
    <contour>
      <point x="432" y="0" type="line" name="hr00"/>
      <point x="432" y="160" type="line"/>
      <point x="550" y="160" type="line"/>
      <point x="550" y="179" type="line"/>
      <point x="432" y="179" type="line"/>
      <point x="432" y="698" type="line"/>
      <point x="407" y="698" type="line"/>
      <point x="47" y="181" type="line"/>
      <point x="47" y="160" type="line"/>
      <point x="412" y="160" type="line"/>
      <point x="412" y="0" type="line"/>
    </contour>
    <contour>
      <point x="410" y="670" type="line"/>
      <point x="412" y="670" type="line"/>
      <point x="412" y="179" type="line"/>
      <point x="69" y="179" type="line"/>
    </contour>
  </outline>
</glyph>
<glyph name="seven" format="1">
  <advance width="600"/>
  <unicode hex="0037"/>
  <outline>
    <contour>
      <point x="211" y="0" type="line" name="hr00"/>
      <point x="512" y="678" type="line"/>
      <point x="512" y="698" type="line"/>
      <point x="77" y="698" type="line"/>
      <point x="77" y="512" type="line"/>
      <point x="99" y="512" type="line"/>
      <point x="99" y="678" type="line"/>
      <point x="489" y="678" type="line"/>
      <point x="187" y="0" type="line"/>
    </contour>
  </outline>
</glyph>
<glyph name="equal" format="1">
  <advance width="600"/>
  <unicode hex="003D"/>
  <outline>
    <contour>
      <point x="538" y="385" type="line" name="hr00"/>
      <point x="538" y="404" type="line"/>
      <point x="62" y="404" type="line"/>
      <point x="62" y="385" type="line"/>
    </contour>
    <contour>
      <point x="538" y="207" type="line"/>
      <point x="538" y="226" type="line"/>
      <point x="62" y="226" type="line"/>
      <point x="62" y="207" type="line"/>
    </contour>
  </outline>
</glyph>
<glyph name="greater" format="1">
  <advance width="600"/>
  <unicode hex="003E"/>
  <outline>
    <contour>
      <point x="85" y="38" type="line" name="hr00"/>
      <point x="515" y="296" type="line"/>
      <point x="515" y="314" type="line"/>
      <point x="85" y="572" type="line"/>
      <point x="85" y="549" type="line"/>
      <point x="492" y="306" type="line"/>
      <point x="492" y="304" type="line"/>
      <point x="85" y="61" type="line"/>
    </contour>
  </outline>
</glyph>
<glyph name="question" format="1">
  <advance width="456"/>
  <unicode hex="003F"/>
  <outline>
    <contour>
      <point x="220" y="176" type="line"/>
      <point x="220" y="330" type="line"/>
      <point x="349" y="342"/>
      <point x="421" y="415"/>
      <point x="421" y="531" type="curve" smooth="yes"/>
      <point x="421" y="638"/>
      <point x="351" y="710"/>
      <point x="236" y="710" type="curve" smooth="yes" name="hr01"/>
      <point x="129" y="710"/>
      <point x="64" y="654"/>
      <point x="37" y="559" type="curve"/>
      <point x="57" y="554" type="line"/>
      <point x="82" y="641"/>
      <point x="137" y="691"/>
      <point x="236" y="691" type="curve" smooth="yes"/>
      <point x="338" y="691"/>
      <point x="398" y="630"/>
      <point x="398" y="542" type="curve" smooth="yes"/>
      <point x="398" y="516" type="line" smooth="yes"/>
      <point x="398" y="419"/>
      <point x="325" y="351"/>
      <point x="198" y="349" type="curve" name="hr02"/>
      <point x="198" y="176" type="line"/>
    </contour>
    <contour>
      <point x="209" y="-5" type="curve" smooth="yes"/>
      <point x="226" y="-5"/>
      <point x="236" y="4"/>
      <point x="236" y="20" type="curve" smooth="yes" name="hr03"/>
      <point x="236" y="28" type="line" smooth="yes"/>
      <point x="236" y="44"/>
      <point x="227" y="53"/>
      <point x="209" y="53" type="curve" smooth="yes"/>
      <point x="191" y="53"/>
      <point x="182" y="44"/>
      <point x="182" y="28" type="curve" smooth="yes"/>
      <point x="182" y="20" type="line" smooth="yes"/>
      <point x="182" y="4"/>
      <point x="192" y="-5"/>
    </contour>
  </outline>
</glyph>
<glyph name="A" format="1">
  <advance width="600"/>
  <unicode hex="0041"/>
  <outline>
    <contour>
      <point x="568" y="0" type="line" name=""/>
      <point x="315" y="698" type="line"/>
      <point x="285" y="698" type="line"/>
      <point x="32" y="0" type="line"/>
      <point x="55" y="0" type="line"/>
      <point x="140" y="234" type="line"/>
      <point x="460" y="234" type="line"/>
      <point x="545" y="0" type="line"/>
    </contour>
    <contour>
      <point x="453" y="253" type="line"/>
      <point x="147" y="253" type="line"/>
      <point x="244" y="524" type="line"/>
      <point x="298" y="675" type="line"/>
      <point x="301" y="675" type="line"/>
      <point x="356" y="524" type="line"/>
    </contour>
    <contour>
      <point x="306.0" y="0.0" type="move" name="bottom"/>
    </contour>
    <contour>
      <point x="556.0" y="0.0" type="move" name="bottomright"/>
    </contour>
    <contour>
      <point x="299.0" y="698.0" type="move" name="top"/>
    </contour>
  </outline>
</glyph>
<glyph name="E" format="1">
  <advance width="561"/>
  <unicode hex="0045"/>
  <outline>
    <contour>
      <point x="489" y="0" type="line" name="hr00"/>
      <point x="489" y="20" type="line"/>
      <point x="130" y="20" type="line"/>
      <point x="130" y="344" type="line"/>
      <point x="477" y="344" type="line"/>
      <point x="477" y="364" type="line"/>
      <point x="130" y="364" type="line"/>
      <point x="130" y="678" type="line"/>
      <point x="489" y="678" type="line"/>
      <point x="489" y="698" type="line"/>
      <point x="108" y="698" type="line"/>
      <point x="108" y="0" type="line"/>
    </contour>
    <contour>
      <point x="299.0" y="0.0" type="move" name="bottom"/>
    </contour>
    <contour>
      <point x="487.0" y="0.0" type="move" name="bottomright"/>
    </contour>
    <contour>
      <point x="299.0" y="698.0" type="move" name="top"/>
    </contour>
  </outline>
</glyph>
<glyph name="F" format="1">
  <advance width="535"/>
  <unicode hex="0046"/>
  <outline>
    <contour>
      <point x="130" y="0" type="line" name="hr00"/>
      <point x="130" y="344" type="line"/>
      <point x="467" y="344" type="line"/>
      <point x="467" y="364" type="line"/>
      <point x="130" y="364" type="line"/>
      <point x="130" y="678" type="line"/>
      <point x="481" y="678" type="line"/>
      <point x="481" y="698" type="line"/>
      <point x="108" y="698" type="line"/>
      <point x="108" y="0" type="line"/>
    </contour>
    <contour>
      <point x="119.0" y="0.0" type="move" name="bottom"/>
    </contour>
    <contour>
      <point x="294.0" y="698.0" type="move" name="top"/>
    </contour>
  </outline>
</glyph>
<glyph name="J" format="1">
  <advance width="464"/>
  <unicode hex="004A"/>
  <outline>
    <contour>
      <point x="96" y="698" type="line" name="hr00"/>
      <point x="96" y="678" type="line"/>
      <point x="342" y="678" type="line"/>
      <point x="342" y="183" type="line" smooth="yes"/>
      <point x="342" y="71"/>
      <point x="292" y="8"/>
      <point x="192" y="8" type="curve" smooth="yes"/>
      <point x="115" y="8"/>
      <point x="60" y="56"/>
      <point x="41" y="119" type="curve"/>
      <point x="22" y="113" type="line"/>
      <point x="40" y="39"/>
      <point x="109" y="-12"/>
      <point x="192" y="-12" type="curve" smooth="yes"/>
      <point x="299" y="-12"/>
      <point x="364" y="55"/>
      <point x="364" y="183" type="curve" smooth="yes"/>
      <point x="364" y="698" type="line"/>
    </contour>
    <contour>
      <point x="192.0" y="0.0" type="move" name="bottom"/>
    </contour>
    <contour>
      <point x="232.0" y="698.0" type="move" name="top"/>
    </contour>
  </outline>
</glyph>
<glyph name="K" format="1">
  <advance width="572"/>
  <unicode hex="004B"/>
  <outline>
    <contour>
      <point x="526" y="0" type="line" name=""/>
      <point x="552" y="0" type="line"/>
      <point x="280" y="403" type="line"/>
      <point x="549" y="698" type="line"/>
      <point x="521" y="698" type="line"/>
      <point x="262" y="413" type="line"/>
      <point x="132" y="271" type="line"/>
      <point x="130" y="271" type="line"/>
      <point x="130" y="413" type="line"/>
      <point x="130" y="698" type="line"/>
      <point x="108" y="698" type="line"/>
      <point x="108" y="0" type="line"/>
      <point x="130" y="0" type="line"/>
      <point x="130" y="239" type="line"/>
      <point x="265" y="387" type="line"/>
    </contour>
    <contour>
      <point x="314.0" y="0.0" type="move" name="bottom"/>
    </contour>
    <contour>
      <point x="313.0" y="698.0" type="move" name="top"/>
    </contour>
  </outline>
</glyph>
<glyph name="L" format="1">
  <advance width="475"/>
  <unicode hex="004C"/>
  <outline>
    <contour>
      <point x="455" y="0" type="line" name="hr00"/>
      <point x="455" y="20" type="line"/>
      <point x="130" y="20" type="line"/>
      <point x="130" y="698" type="line"/>
      <point x="108" y="698" type="line"/>
      <point x="108" y="0" type="line"/>
    </contour>
    <contour>
      <point x="292.0" y="0.0" type="move" name="bottom"/>
    </contour>
    <contour>
      <point x="119.0" y="698.0" type="move" name="top"/>
    </contour>
    <contour>
      <point x="230.0" y="740.0" type="move" name="topright"/>
    </contour>
  </outline>
</glyph>
<glyph name="M" format="1">
  <advance width="796"/>
  <unicode hex="004D"/>
  <outline>
    <contour>
      <point x="108" y="0" type="line"/>
      <point x="129" y="0" type="line"/>
      <point x="129" y="504" type="line"/>
      <point x="129" y="673" type="line"/>
      <point x="132" y="673" type="line"/>
      <point x="235" y="504" type="line"/>
      <point x="398" y="236" type="line"/>
      <point x="561" y="504" type="line"/>
      <point x="664" y="673" type="line"/>
      <point x="667" y="673" type="line"/>
      <point x="667" y="504" type="line"/>
      <point x="667" y="0" type="line" name=""/>
      <point x="688" y="0" type="line"/>
      <point x="688" y="698" type="line"/>
      <point x="655" y="698" type="line"/>
      <point x="497" y="438" type="line"/>
      <point x="400" y="278" type="line"/>
      <point x="397" y="278" type="line"/>
      <point x="299" y="438" type="line"/>
      <point x="141" y="698" type="line"/>
      <point x="108" y="698" type="line"/>
    </contour>
    <contour>
      <point x="398.0" y="0.0" type="move" name="bottom"/>
    </contour>
    <contour>
      <point x="398.0" y="698.0" type="move" name="top"/>
    </contour>
  </outline>
</glyph>
<glyph name="N" format="1">
  <advance width="692"/>
  <unicode hex="004E"/>
  <outline>
    <contour>
      <point x="552" y="0" type="line" name=""/>
      <point x="584" y="0" type="line"/>
      <point x="584" y="698" type="line"/>
      <point x="563" y="698" type="line"/>
      <point x="563" y="197" type="line"/>
      <point x="563" y="27" type="line"/>
      <point x="560" y="27" type="line"/>
      <point x="454" y="197" type="line"/>
      <point x="140" y="698" type="line"/>
      <point x="108" y="698" type="line"/>
      <point x="108" y="0" type="line"/>
      <point x="129" y="0" type="line"/>
      <point x="129" y="501" type="line"/>
      <point x="129" y="671" type="line"/>
      <point x="132" y="671" type="line"/>
      <point x="239" y="501" type="line"/>
    </contour>
    <contour>
      <point x="346.0" y="0.0" type="move" name="bottom"/>
    </contour>
    <contour>
      <point x="346.0" y="698.0" type="move" name="top"/>
    </contour>
  </outline>
</glyph>
<glyph name="U" format="1">
  <advance width="652"/>
  <unicode hex="0055"/>
  <outline>
    <contour>
      <point x="100" y="698" type="line" name="hr00"/>
      <point x="100" y="270" type="line" smooth="yes"/>
      <point x="100" y="63"/>
      <point x="158" y="-12"/>
      <point x="326" y="-12" type="curve" smooth="yes"/>
      <point x="494" y="-12"/>
      <point x="552" y="63"/>
      <point x="552" y="270" type="curve" smooth="yes"/>
      <point x="552" y="698" type="line"/>
      <point x="530" y="698" type="line"/>
      <point x="530" y="268" type="line" smooth="yes"/>
      <point x="530" y="78"/>
      <point x="482" y="8"/>
      <point x="326" y="8" type="curve" smooth="yes"/>
      <point x="170" y="8"/>
      <point x="122" y="78"/>
      <point x="122" y="268" type="curve" smooth="yes"/>
      <point x="122" y="698" type="line"/>
    </contour>
    <contour>
      <point x="326.0" y="0.0" type="move" name="bottom"/>
    </contour>
    <contour>
      <point x="424.0" y="0.0" type="move" name="bottomright"/>
    </contour>
    <contour>
      <point x="325.0" y="698.0" type="move" name="top"/>
    </contour>
  </outline>
</glyph>
<glyph name="V" format="1">
  <advance width="570"/>
  <unicode hex="0056"/>
  <outline>
    <contour>
      <point x="300" y="0" type="line" name=""/>
      <point x="540" y="698" type="line"/>
      <point x="517" y="698" type="line"/>
      <point x="361" y="242" type="line"/>
      <point x="287" y="25" type="line"/>
      <point x="284" y="25" type="line"/>
      <point x="210" y="242" type="line"/>
      <point x="54" y="698" type="line"/>
      <point x="30" y="698" type="line"/>
      <point x="270" y="0" type="line"/>
    </contour>
    <contour>
      <point x="284.0" y="0.0" type="move" name="bottom"/>
    </contour>
    <contour>
      <point x="284.0" y="698.0" type="move" name="top"/>
    </contour>
  </outline>
</glyph>
<glyph name="W" format="1">
  <advance width="872"/>
  <unicode hex="0057"/>
  <outline>
    <contour>
      <point x="246" y="0" type="line" name=""/>
      <point x="374" y="457" type="line"/>
      <point x="434" y="674" type="line"/>
      <point x="437" y="674" type="line"/>
      <point x="498" y="457" type="line"/>
      <point x="626" y="0" type="line"/>
      <point x="656" y="0" type="line"/>
      <point x="842" y="698" type="line"/>
      <point x="819" y="698" type="line"/>
      <point x="700" y="248" type="line"/>
      <point x="642" y="31" type="line"/>
      <point x="639" y="31" type="line"/>
      <point x="578" y="248" type="line"/>
      <point x="452" y="698" type="line"/>
      <point x="420" y="698" type="line"/>
      <point x="294" y="248" type="line"/>
      <point x="233" y="31" type="line"/>
      <point x="230" y="31" type="line"/>
      <point x="173" y="248" type="line"/>
      <point x="54" y="698" type="line"/>
      <point x="30" y="698" type="line"/>
      <point x="216" y="0" type="line"/>
    </contour>
    <contour>
      <point x="427.0" y="0.0" type="move" name="bottom"/>
    </contour>
    <contour>
      <point x="433.0" y="698.0" type="move" name="top"/>
    </contour>
  </outline>
</glyph>
<glyph name="Z" format="1">
  <advance width="555"/>
  <unicode hex="005A"/>
  <outline>
    <contour>
      <point x="527" y="20" type="line" name="hr00"/>
      <point x="63" y="20" type="line"/>
      <point x="506" y="676" type="line"/>
      <point x="506" y="698" type="line"/>
      <point x="62" y="698" type="line"/>
      <point x="62" y="678" type="line"/>
      <point x="482" y="678" type="line"/>
      <point x="39" y="22" type="line"/>
      <point x="39" y="0" type="line"/>
      <point x="527" y="0" type="line"/>
    </contour>
    <contour>
      <point x="282.0" y="0.0" type="move" name="bottom"/>
    </contour>
    <contour>
      <point x="282.0" y="698.0" type="move" name="top"/>
    </contour>
  </outline>
</glyph>
<glyph name="bracketleft" format="1">
  <advance width="301"/>
  <unicode hex="005B"/>
  <outline>
    <contour>
      <point x="232" y="-138" type="line" name="hr00"/>
      <point x="232" y="-120" type="line"/>
      <point x="128" y="-120" type="line"/>
      <point x="128" y="742" type="line"/>
      <point x="232" y="742" type="line"/>
      <point x="232" y="760" type="line"/>
      <point x="108" y="760" type="line"/>
      <point x="108" y="-138" type="line"/>
    </contour>
  </outline>
</glyph>
<glyph name="bracketright" format="1">
  <advance width="301"/>
  <unicode hex="005D"/>
  <outline>
    <contour>
      <point x="69" y="760" type="line" name="hr00"/>
      <point x="69" y="742" type="line"/>
      <point x="173" y="742" type="line"/>
      <point x="173" y="-120" type="line"/>
      <point x="69" y="-120" type="line"/>
      <point x="69" y="-138" type="line"/>
      <point x="193" y="-138" type="line"/>
      <point x="193" y="760" type="line"/>
    </contour>
  </outline>
</glyph>
<glyph name="asciicircum" format="1">
  <advance width="600"/>
  <unicode hex="005E"/>
  <outline>
    <contour>
      <point x="532" y="332" type="line" name="hr00"/>
      <point x="311" y="698" type="line"/>
      <point x="289" y="698" type="line"/>
      <point x="68" y="332" type="line"/>
      <point x="86" y="322" type="line"/>
      <point x="299" y="676" type="line"/>
      <point x="301" y="676" type="line"/>
      <point x="514" y="322" type="line"/>
    </contour>
  </outline>
</glyph>
<glyph name="underscore" format="1">
  <advance width="569"/>
  <unicode hex="005F"/>
  <outline>
    <contour>
      <point x="539" y="-141" type="line" name="hr00"/>
      <point x="539" y="-123" type="line"/>
      <point x="30" y="-123" type="line"/>
      <point x="30" y="-141" type="line"/>
    </contour>
  </outline>
</glyph>
<glyph name="a" format="1">
  <advance width="519"/>
  <unicode hex="0061"/>
  <outline>
    <contour>
      <point x="499" y="0" type="line"/>
      <point x="499" y="19" type="line"/>
      <point x="414" y="19" type="line"/>
      <point x="414" y="352" type="line" smooth="yes"/>
      <point x="414" y="459"/>
      <point x="359" y="518"/>
      <point x="249" y="518" type="curve" smooth="yes"/>
      <point x="155" y="518"/>
      <point x="106" y="477"/>
      <point x="78" y="412" type="curve"/>
      <point x="96" y="404" type="line"/>
      <point x="124" y="470"/>
      <point x="173" y="499"/>
      <point x="249" y="499" type="curve" smooth="yes"/>
      <point x="343" y="499"/>
      <point x="393" y="453"/>
      <point x="393" y="349" type="curve" smooth="yes"/>
      <point x="393" y="275" type="line"/>
      <point x="251" y="275" type="line" smooth="yes"/>
      <point x="106" y="275"/>
      <point x="61" y="214"/>
      <point x="61" y="130" type="curve" smooth="yes"/>
      <point x="61" y="39"/>
      <point x="120" y="-12"/>
      <point x="224" y="-12" type="curve" smooth="yes" name=""/>
      <point x="317" y="-12"/>
      <point x="365" y="29"/>
      <point x="390" y="77" type="curve"/>
      <point x="403" y="77" type="line"/>
      <point x="393" y="87" type="line"/>
      <point x="393" y="29" type="line" smooth="yes"/>
      <point x="393" y="9"/>
      <point x="402" y="0"/>
      <point x="422" y="0" type="curve" smooth="yes" name=""/>
    </contour>
    <contour>
      <point x="393" y="257" type="line"/>
      <point x="393" y="148" type="line" smooth="yes"/>
      <point x="393" y="54"/>
      <point x="314" y="7"/>
      <point x="224" y="7" type="curve" smooth="yes" name=""/>
      <point x="142" y="7"/>
      <point x="84" y="45"/>
      <point x="84" y="115" type="curve" smooth="yes"/>
      <point x="84" y="145" type="line" smooth="yes"/>
      <point x="84" y="212"/>
      <point x="133" y="257"/>
      <point x="252" y="257" type="curve" smooth="yes"/>
    </contour>
    <contour>
      <point x="224.0" y="0.0" type="move" name="bottom"/>
    </contour>
    <contour>
      <point x="499.0" y="0.0" type="move" name="bottomright"/>
    </contour>
    <contour>
      <point x="249.0" y="540.0" type="move" name="top"/>
    </contour>
  </outline>
</glyph>
<glyph name="b" format="1">
  <advance width="565"/>
  <unicode hex="0062"/>
  <outline>
    <contour>
      <point x="105" y="0" type="line"/>
      <point x="126" y="0" type="line"/>
      <point x="126" y="78" type="line"/>
      <point x="129" y="78" type="line"/>
      <point x="150" y="34"/>
      <point x="204" y="-12"/>
      <point x="293" y="-12" type="curve" smooth="yes" name="hr01"/>
      <point x="426" y="-12"/>
      <point x="505" y="77"/>
      <point x="505" y="253" type="curve" smooth="yes"/>
      <point x="505" y="429"/>
      <point x="426" y="518"/>
      <point x="293" y="518" type="curve" smooth="yes"/>
      <point x="204" y="518"/>
      <point x="150" y="472"/>
      <point x="129" y="428" type="curve"/>
      <point x="126" y="428" type="line"/>
      <point x="126" y="740" type="line" name="hr02"/>
      <point x="105" y="740" type="line"/>
    </contour>
    <contour>
      <point x="293" y="7" type="curve" smooth="yes" name="hr03"/>
      <point x="205" y="7"/>
      <point x="126" y="62"/>
      <point x="126" y="143" type="curve" smooth="yes"/>
      <point x="126" y="363" type="line" smooth="yes"/>
      <point x="126" y="444"/>
      <point x="205" y="499"/>
      <point x="293" y="499" type="curve" smooth="yes"/>
      <point x="414" y="499"/>
      <point x="482" y="414"/>
      <point x="482" y="277" type="curve" smooth="yes"/>
      <point x="482" y="229" type="line" smooth="yes"/>
      <point x="482" y="92"/>
      <point x="414" y="7"/>
    </contour>
    <contour>
      <point x="294.0" y="0.0" type="move" name="bottom"/>
    </contour>
  </outline>
</glyph>
<glyph name="d" format="1">
  <advance width="565"/>
  <unicode hex="0064"/>
  <outline>
    <contour>
      <point x="439" y="0" type="line"/>
      <point x="460" y="0" type="line"/>
      <point x="460" y="740" type="line"/>
      <point x="439" y="740" type="line"/>
      <point x="439" y="428" type="line"/>
      <point x="436" y="428" type="line"/>
      <point x="415" y="472"/>
      <point x="361" y="518"/>
      <point x="272" y="518" type="curve" smooth="yes"/>
      <point x="139" y="518"/>
      <point x="60" y="429"/>
      <point x="60" y="253" type="curve" smooth="yes"/>
      <point x="60" y="77"/>
      <point x="139" y="-12"/>
      <point x="272" y="-12" type="curve" smooth="yes" name="hr01"/>
      <point x="361" y="-12"/>
      <point x="415" y="34"/>
      <point x="436" y="78" type="curve" name="hr02"/>
      <point x="439" y="78" type="line"/>
    </contour>
    <contour>
      <point x="272" y="7" type="curve" smooth="yes" name="hr03"/>
      <point x="151" y="7"/>
      <point x="83" y="92"/>
      <point x="83" y="229" type="curve" smooth="yes"/>
      <point x="83" y="277" type="line" smooth="yes"/>
      <point x="83" y="414"/>
      <point x="151" y="499"/>
      <point x="272" y="499" type="curve" smooth="yes"/>
      <point x="360" y="499"/>
      <point x="439" y="444"/>
      <point x="439" y="363" type="curve" smooth="yes"/>
      <point x="439" y="143" type="line" smooth="yes"/>
      <point x="439" y="62"/>
      <point x="360" y="7"/>
    </contour>
    <contour>
      <point x="273.0" y="0.0" type="move" name="bottom"/>
    </contour>
    <contour>
      <point x="548.0" y="740.0" type="move" name="topright"/>
    </contour>
  </outline>
</glyph>
<glyph name="g" format="1">
  <advance width="527"/>
  <unicode hex="0067"/>
  <outline>
    <contour>
      <point x="501" y="-65" type="curve" smooth="yes"/>
      <point x="501" y="7"/>
      <point x="453" y="53"/>
      <point x="338" y="53" type="curve" smooth="yes"/>
      <point x="203" y="53" type="line" smooth="yes"/>
      <point x="133" y="53"/>
      <point x="116" y="81"/>
      <point x="116" y="109" type="curve" smooth="yes"/>
      <point x="116" y="146"/>
      <point x="147" y="171"/>
      <point x="207" y="187" type="curve"/>
      <point x="227" y="183"/>
      <point x="243" y="180"/>
      <point x="263" y="180" type="curve" smooth="yes"/>
      <point x="366" y="180"/>
      <point x="436" y="247"/>
      <point x="436" y="349" type="curve" smooth="yes"/>
      <point x="436" y="398"/>
      <point x="421" y="439"/>
      <point x="393" y="468" type="curve"/>
      <point x="393" y="542" type="line"/>
      <point x="504" y="542" type="line"/>
      <point x="504" y="561" type="line"/>
      <point x="401" y="561" type="line" smooth="yes"/>
      <point x="382" y="561"/>
      <point x="374" y="553"/>
      <point x="374" y="534" type="curve" smooth="yes"/>
      <point x="374" y="485" type="line"/>
      <point x="345" y="506"/>
      <point x="308" y="518"/>
      <point x="263" y="518" type="curve" smooth="yes"/>
      <point x="156" y="518"/>
      <point x="90" y="451"/>
      <point x="90" y="349" type="curve" smooth="yes" name="hr01"/>
      <point x="90" y="273"/>
      <point x="124" y="222"/>
      <point x="181" y="197" type="curve"/>
      <point x="181" y="194" type="line"/>
      <point x="137" y="181"/>
      <point x="96" y="154"/>
      <point x="96" y="108" type="curve" smooth="yes" name="hr02"/>
      <point x="96" y="76"/>
      <point x="112" y="52"/>
      <point x="149" y="41" type="curve"/>
      <point x="149" y="38" type="line"/>
      <point x="87" y="18"/>
      <point x="50" y="-22"/>
      <point x="50" y="-82" type="curve" smooth="yes"/>
      <point x="50" y="-160"/>
      <point x="113" y="-212"/>
      <point x="262" y="-212" type="curve" smooth="yes"/>
      <point x="414" y="-212"/>
      <point x="501" y="-166"/>
    </contour>
    <contour>
      <point x="479" y="-65" type="curve" smooth="yes"/>
      <point x="479" y="-154"/>
      <point x="400" y="-193"/>
      <point x="287" y="-193" type="curve" smooth="yes"/>
      <point x="238" y="-193" type="line" smooth="yes"/>
      <point x="136" y="-193"/>
      <point x="72" y="-149"/>
      <point x="72" y="-83" type="curve" smooth="yes"/>
      <point x="72" y="-19"/>
      <point x="117" y="17"/>
      <point x="180" y="33" type="curve"/>
      <point x="335" y="33" type="line" smooth="yes"/>
      <point x="443" y="33"/>
      <point x="479" y="-4"/>
    </contour>
    <contour>
      <point x="263" y="199" type="curve" smooth="yes"/>
      <point x="170" y="199"/>
      <point x="114" y="256"/>
      <point x="114" y="330" type="curve" smooth="yes" name="hr03"/>
      <point x="114" y="368" type="line" smooth="yes"/>
      <point x="114" y="442"/>
      <point x="168" y="499"/>
      <point x="263" y="499" type="curve" smooth="yes"/>
      <point x="358" y="499"/>
      <point x="412" y="442"/>
      <point x="412" y="368" type="curve" smooth="yes"/>
      <point x="412" y="330" type="line" smooth="yes"/>
      <point x="412" y="256"/>
      <point x="358" y="199"/>
    </contour>
    <contour>
      <point x="264.0" y="540.0" type="move" name="top"/>
    </contour>
  </outline>
</glyph>
<glyph name="i" format="1">
  <advance width="231"/>
  <unicode hex="0069"/>
  <outline>
    <contour>
      <point x="115" y="673" type="curve" smooth="yes"/>
      <point x="132" y="673"/>
      <point x="138" y="683"/>
      <point x="138" y="694" type="curve" smooth="yes"/>
      <point x="138" y="701" type="line" smooth="yes"/>
      <point x="138" y="712"/>
      <point x="132" y="722"/>
      <point x="115" y="722" type="curve" smooth="yes"/>
      <point x="98" y="722"/>
      <point x="92" y="712"/>
      <point x="92" y="701" type="curve" smooth="yes"/>
      <point x="92" y="694" type="line" smooth="yes"/>
      <point x="92" y="683"/>
      <point x="98" y="673"/>
    </contour>
    <contour>
      <point x="105" y="0" type="line" name="hr01"/>
      <point x="126" y="0" type="line"/>
      <point x="126" y="506" type="line"/>
      <point x="105" y="506" type="line"/>
    </contour>
    <contour>
      <point x="116.0" y="0.0" type="move" name="bottom"/>
    </contour>
    <contour>
      <point x="126.0" y="0.0" type="move" name="bottomright"/>
    </contour>
  </outline>
</glyph>
<glyph name="j" format="1">
  <advance width="231"/>
  <unicode hex="006A"/>
  <outline>
    <contour>
      <point x="105" y="-181" type="line"/>
      <point x="20" y="-181" type="line"/>
      <point x="20" y="-200" type="line"/>
      <point x="97" y="-200" type="line" smooth="yes"/>
      <point x="117" y="-200"/>
      <point x="126" y="-191"/>
      <point x="126" y="-171" type="curve" smooth="yes"/>
      <point x="126" y="506" type="line"/>
      <point x="105" y="506" type="line"/>
    </contour>
    <contour>
      <point x="115" y="673" type="curve" smooth="yes"/>
      <point x="132" y="673"/>
      <point x="138" y="683"/>
      <point x="138" y="694" type="curve" smooth="yes" name="hr01"/>
      <point x="138" y="701" type="line" smooth="yes"/>
      <point x="138" y="712"/>
      <point x="132" y="722"/>
      <point x="115" y="722" type="curve" smooth="yes"/>
      <point x="98" y="722"/>
      <point x="92" y="712"/>
      <point x="92" y="701" type="curve" smooth="yes"/>
      <point x="92" y="694" type="line" smooth="yes"/>
      <point x="92" y="683"/>
      <point x="98" y="673"/>
    </contour>
  </outline>
</glyph>
<glyph name="k" format="1">
  <advance width="490"/>
  <unicode hex="006B"/>
  <outline>
    <contour>
      <point x="105" y="0" type="line" name=""/>
      <point x="126" y="0" type="line"/>
      <point x="126" y="190" type="line"/>
      <point x="214" y="277" type="line"/>
      <point x="445" y="0" type="line"/>
      <point x="471" y="0" type="line"/>
      <point x="229" y="292" type="line"/>
      <point x="444" y="506" type="line"/>
      <point x="416" y="506" type="line"/>
      <point x="209" y="299" type="line"/>
      <point x="129" y="220" type="line"/>
      <point x="126" y="220" type="line"/>
      <point x="126" y="299" type="line"/>
      <point x="126" y="740" type="line"/>
      <point x="105" y="740" type="line"/>
    </contour>
    <contour>
      <point x="270.0" y="0.0" type="move" name="bottom"/>
    </contour>
  </outline>
</glyph>
<glyph name="v" format="1">
  <advance width="452"/>
  <unicode hex="0076"/>
  <outline>
    <contour>
      <point x="239" y="0" type="line"/>
      <point x="427" y="506" type="line"/>
      <point x="406" y="506" type="line"/>
      <point x="289" y="189" type="line"/>
      <point x="228" y="24" type="line"/>
      <point x="225" y="24" type="line"/>
      <point x="164" y="189" type="line"/>
      <point x="47" y="506" type="line"/>
      <point x="25" y="506" type="line"/>
      <point x="213" y="0" type="line" name=""/>
    </contour>
    <contour>
      <point x="226.0" y="0.0" type="move" name="bottom"/>
    </contour>
    <contour>
      <point x="226.0" y="540.0" type="move" name="top"/>
    </contour>
  </outline>
</glyph>
<glyph name="w" format="1">
  <advance width="725"/>
  <unicode hex="0077"/>
  <outline>
    <contour>
      <point x="189" y="0" type="line" name=""/>
      <point x="215" y="0" type="line"/>
      <point x="310" y="308" type="line"/>
      <point x="361" y="472" type="line"/>
      <point x="364" y="472" type="line"/>
      <point x="415" y="308" type="line"/>
      <point x="510" y="0" type="line"/>
      <point x="536" y="0" type="line"/>
      <point x="690" y="506" type="line"/>
      <point x="669" y="506" type="line"/>
      <point x="574" y="191" type="line"/>
      <point x="525" y="27" type="line"/>
      <point x="522" y="27" type="line"/>
      <point x="471" y="191" type="line"/>
      <point x="374" y="506" type="line"/>
      <point x="352" y="506" type="line"/>
      <point x="255" y="191" type="line"/>
      <point x="204" y="27" type="line"/>
      <point x="201" y="27" type="line"/>
      <point x="152" y="191" type="line"/>
      <point x="57" y="506" type="line"/>
      <point x="35" y="506" type="line"/>
    </contour>
    <contour>
      <point x="363.0" y="0.0" type="move" name="bottom"/>
    </contour>
    <contour>
      <point x="363.0" y="540.0" type="move" name="top"/>
    </contour>
  </outline>
</glyph>
<glyph name="y" format="1">
  <advance width="452"/>
  <unicode hex="0079"/>
  <outline>
    <contour>
      <point x="291" y="194" type="line"/>
      <point x="228" y="24" type="line" name=""/>
      <point x="225" y="24" type="line"/>
      <point x="162" y="194" type="line"/>
      <point x="47" y="506" type="line"/>
      <point x="25" y="506" type="line"/>
      <point x="216" y="-7" type="line"/>
      <point x="150" y="-181" type="line"/>
      <point x="57" y="-181" type="line"/>
      <point x="57" y="-200" type="line"/>
      <point x="141" y="-200" type="line" smooth="yes"/>
      <point x="156" y="-200"/>
      <point x="167" y="-194"/>
      <point x="172" y="-181" type="curve" smooth="yes"/>
      <point x="427" y="506" type="line"/>
      <point x="406" y="506" type="line"/>
    </contour>
    <contour>
      <point x="356.0" y="0.0" type="move" name="bottom"/>
    </contour>
    <contour>
      <point x="228.0" y="540.0" type="move" name="top"/>
    </contour>
  </outline>
</glyph>
<glyph name="z" format="1">
  <advance width="417"/>
  <unicode hex="007A"/>
  <outline>
    <contour>
      <point x="396" y="0" type="line" name="hr00"/>
      <point x="396" y="19" type="line"/>
      <point x="49" y="19" type="line"/>
      <point x="386" y="485" type="line"/>
      <point x="386" y="506" type="line"/>
      <point x="37" y="506" type="line"/>
      <point x="37" y="487" type="line"/>
      <point x="364" y="487" type="line"/>
      <point x="27" y="21" type="line"/>
      <point x="27" y="0" type="line"/>
    </contour>
    <contour>
      <point x="209.0" y="0.0" type="move" name="bottom"/>
    </contour>
    <contour>
      <point x="209.0" y="540.0" type="move" name="top"/>
    </contour>
  </outline>
</glyph>
<glyph name="yen" format="1">
  <advance width="580"/>
  <unicode hex="00A5"/>
  <outline>
    <contour>
      <point x="499" y="168" type="line" name="hr00"/>
      <point x="499" y="187" type="line"/>
      <point x="301" y="187" type="line"/>
      <point x="301" y="325" type="line"/>
      <point x="499" y="325" type="line"/>
      <point x="499" y="344" type="line"/>
      <point x="313" y="344" type="line"/>
      <point x="532" y="698" type="line"/>
      <point x="508" y="698" type="line"/>
      <point x="292" y="348" type="line"/>
      <point x="289" y="348" type="line"/>
      <point x="73" y="698" type="line"/>
      <point x="48" y="698" type="line"/>
      <point x="267" y="344" type="line"/>
      <point x="81" y="344" type="line"/>
      <point x="81" y="325" type="line"/>
      <point x="279" y="325" type="line"/>
      <point x="279" y="187" type="line"/>
      <point x="81" y="187" type="line"/>
      <point x="81" y="168" type="line"/>
      <point x="279" y="168" type="line"/>
      <point x="279" y="0" type="line"/>
      <point x="301" y="0" type="line"/>
      <point x="301" y="168" type="line"/>
    </contour>
  </outline>
</glyph>
<glyph name="brokenbar" format="1">
  <advance width="236"/>
  <unicode hex="00A6"/>
  <outline>
    <contour>
      <point x="128" y="401" type="line" name="hr00"/>
      <point x="128" y="760" type="line"/>
      <point x="108" y="760" type="line"/>
      <point x="108" y="401" type="line"/>
    </contour>
    <contour>
      <point x="128" y="-138" type="line"/>
      <point x="128" y="221" type="line"/>
      <point x="108" y="221" type="line"/>
      <point x="108" y="-138" type="line"/>
    </contour>
  </outline>
</glyph>
<glyph name="ordfeminine" format="1">
  <advance width="353"/>
  <unicode hex="00AA"/>
  <outline>
    <contour>
      <point x="329" y="383" type="line"/>
      <point x="282" y="383" type="line"/>
      <point x="282" y="601" type="line" smooth="yes"/>
      <point x="282" y="666"/>
      <point x="238" y="704"/>
      <point x="164" y="704" type="curve" smooth="yes"/>
      <point x="105" y="704"/>
      <point x="68" y="678"/>
      <point x="50" y="637" type="curve"/>
      <point x="65" y="629" type="line"/>
      <point x="83" y="670"/>
      <point x="120" y="687"/>
      <point x="164" y="687" type="curve" smooth="yes"/>
      <point x="226" y="687"/>
      <point x="263" y="658"/>
      <point x="263" y="598" type="curve" smooth="yes"/>
      <point x="263" y="542" type="line"/>
      <point x="167" y="542" type="line" smooth="yes"/>
      <point x="73" y="542"/>
      <point x="40" y="505"/>
      <point x="40" y="449" type="curve" smooth="yes"/>
      <point x="40.0" y="395"/>
      <point x="78" y="360"/>
      <point x="149" y="360" type="curve" smooth="yes" name=""/>
      <point x="212" y="360"/>
      <point x="246" y="387"/>
      <point x="261" y="415" type="curve"/>
      <point x="273" y="415" type="line"/>
      <point x="263" y="425" type="line"/>
      <point x="263" y="385" type="line" smooth="yes"/>
      <point x="263" y="372"/>
      <point x="268" y="366"/>
      <point x="281" y="366" type="curve" smooth="yes" name=""/>
      <point x="329" y="366" type="line"/>
    </contour>
    <contour>
      <point x="263" y="525" type="line"/>
      <point x="263" y="461" type="line" smooth="yes"/>
      <point x="263" y="404"/>
      <point x="210" y="377"/>
      <point x="149" y="377" type="curve" smooth="yes" name=""/>
      <point x="96.0" y="377.0"/>
      <point x="61" y="400"/>
      <point x="61" y="443" type="curve" smooth="yes"/>
      <point x="61" y="456" type="line" smooth="yes"/>
      <point x="61" y="498"/>
      <point x="89" y="525"/>
      <point x="166" y="525" type="curve" smooth="yes"/>
    </contour>
  </outline>
</glyph>
<glyph name="plusminus" format="1">
  <advance width="600"/>
  <unicode hex="00B1"/>
  <outline>
    <contour>
      <point x="311" y="115" type="line" name="hr00"/>
      <point x="311" y="349" type="line"/>
      <point x="539" y="349" type="line"/>
      <point x="539" y="368" type="line"/>
      <point x="311" y="368" type="line"/>
      <point x="311" y="602" type="line"/>
      <point x="290" y="602" type="line"/>
      <point x="290" y="368" type="line"/>
      <point x="62" y="368" type="line"/>
      <point x="62" y="349" type="line"/>
      <point x="290" y="349" type="line"/>
      <point x="290" y="115" type="line"/>
    </contour>
    <contour>
      <point x="538" y="0" type="line"/>
      <point x="538" y="19" type="line"/>
      <point x="62" y="19" type="line"/>
      <point x="62" y="0" type="line"/>
    </contour>
  </outline>
</glyph>
<glyph name="paragraph" format="1">
  <advance width="591"/>
  <unicode hex="00B6"/>
  <outline>
    <contour>
      <point x="250" y="-149" type="line" name="hr00"/>
      <point x="271" y="-149" type="line"/>
      <point x="271" y="680" type="line"/>
      <point x="403" y="680" type="line"/>
      <point x="403" y="-149" type="line"/>
      <point x="424" y="-149" type="line"/>
      <point x="424" y="680" type="line"/>
      <point x="493" y="680" type="line"/>
      <point x="493" y="698" type="line"/>
      <point x="250" y="698" type="line" smooth="yes"/>
      <point x="141" y="698"/>
      <point x="51" y="631"/>
      <point x="51" y="514" type="curve" smooth="yes"/>
      <point x="51" y="397"/>
      <point x="141" y="330"/>
      <point x="250" y="330" type="curve"/>
    </contour>
  </outline>
</glyph>
<glyph name="onesuperior" format="1">
  <advance width="373"/>
  <unicode hex="00B9"/>
  <outline>
    <contour>
      <point x="326" y="329" type="line" name="hr00"/>
      <point x="326" y="346" type="line"/>
      <point x="208" y="346" type="line"/>
      <point x="208" y="698" type="line"/>
      <point x="176" y="698" type="line"/>
      <point x="49" y="591" type="line"/>
      <point x="60" y="578" type="line"/>
      <point x="185" y="683" type="line"/>
      <point x="189" y="683" type="line"/>
      <point x="189" y="346" type="line"/>
      <point x="60" y="346" type="line"/>
      <point x="60" y="329" type="line"/>
    </contour>
  </outline>
</glyph>
<glyph name="Ecircumflex" format="1">
  <advance width="561"/>
  <unicode hex="00CA"/>
  <outline>
    <component base="E"/>
    <component base="circumflex.case" xOffset="-1"/>
    <contour>
      <point x="299.0" y="0.0" type="move" name="bottom"/>
    </contour>
    <contour>
      <point x="487.0" y="0.0" type="move" name="bottomright"/>
    </contour>
  </outline>
</glyph>
<glyph name="Oslash" format="1">
  <advance width="680"/>
  <unicode hex="00D8"/>
  <outline>
    <contour>
      <point x="340" y="-12" type="curve" smooth="yes" name=""/>
      <point x="513" y="-12"/>
      <point x="610" y="109"/>
      <point x="610" y="349" type="curve" smooth="yes"/>
      <point x="610" y="469"/>
      <point x="586" y="559"/>
      <point x="540" y="619" type="curve"/>
      <point x="610" y="720" type="line"/>
      <point x="593" y="731" type="line"/>
      <point x="527" y="636" type="line"/>
      <point x="481" y="685"/>
      <point x="418" y="710"/>
      <point x="340" y="710" type="curve" smooth="yes"/>
      <point x="167" y="710"/>
      <point x="70" y="589"/>
      <point x="70" y="349" type="curve" smooth="yes"/>
      <point x="70" y="230"/>
      <point x="94" y="140"/>
      <point x="139" y="80" type="curve"/>
      <point x="70" y="-20" type="line"/>
      <point x="88" y="-31" type="line"/>
      <point x="153" y="63" type="line"/>
      <point x="198" y="13"/>
      <point x="261" y="-12"/>
    </contour>
    <contour>
      <point x="340" y="690" type="curve" smooth="yes"/>
      <point x="413" y="690"/>
      <point x="472" y="665"/>
      <point x="514" y="617" type="curve"/>
      <point x="340" y="368" type="line"/>
      <point x="153" y="100" type="line"/>
      <point x="151" y="100" type="line"/>
      <point x="115" y="153"/>
      <point x="94" y="230"/>
      <point x="94" y="328" type="curve"/>
      <point x="94" y="370" type="line" smooth="yes"/>
      <point x="94" y="581"/>
      <point x="187" y="690"/>
    </contour>
    <contour>
      <point x="340" y="8" type="curve" smooth="yes"/>
      <point x="267" y="8"/>
      <point x="208" y="33"/>
      <point x="166" y="81" type="curve"/>
      <point x="340" y="331" type="line"/>
      <point x="526" y="598" type="line"/>
      <point x="528" y="598" type="line"/>
      <point x="566" y="546"/>
      <point x="586" y="469"/>
      <point x="586" y="370" type="curve"/>
      <point x="586" y="328" type="line" smooth="yes"/>
      <point x="586" y="117"/>
      <point x="493" y="8"/>
    </contour>
    <contour>
      <point x="340.0" y="0.0" type="move" name="bottom"/>
    </contour>
    <contour>
      <point x="340.0" y="698.0" type="move" name="top"/>
    </contour>
  </outline>
</glyph>
<glyph name="oslash" format="1">
  <advance width="546"/>
  <unicode hex="00F8"/>
  <outline>
    <contour>
      <point x="54" y="-26" type="line" name=""/>
      <point x="119" y="54" type="line"/>
      <point x="155" y="10"/>
      <point x="207" y="-12"/>
      <point x="273" y="-12" type="curve" smooth="yes"/>
      <point x="405" y="-12"/>
      <point x="483" y="78"/>
      <point x="483" y="253" type="curve" smooth="yes"/>
      <point x="483" y="335"/>
      <point x="466" y="398"/>
      <point x="434" y="442" type="curve"/>
      <point x="506" y="531" type="line"/>
      <point x="492" y="542" type="line"/>
      <point x="423" y="457" type="line"/>
      <point x="387" y="497"/>
      <point x="336" y="518"/>
      <point x="273" y="518" type="curve" smooth="yes"/>
      <point x="141" y="518"/>
      <point x="63" y="428"/>
      <point x="63" y="253" type="curve" smooth="yes"/>
      <point x="63" y="174"/>
      <point x="79" y="113"/>
      <point x="108" y="69" type="curve"/>
      <point x="40" y="-15" type="line"/>
    </contour>
    <contour>
      <point x="273" y="7" type="curve" smooth="yes"/>
      <point x="211" y="7"/>
      <point x="164" y="30"/>
      <point x="132" y="70" type="curve"/>
      <point x="273" y="244" type="line"/>
      <point x="420" y="425" type="line"/>
      <point x="422" y="425" type="line"/>
      <point x="447" y="388"/>
      <point x="460" y="338"/>
      <point x="460" y="277" type="curve"/>
      <point x="460" y="229" type="line" smooth="yes"/>
      <point x="460" y="93"/>
      <point x="393" y="7"/>
    </contour>
    <contour>
      <point x="273" y="499" type="curve" smooth="yes"/>
      <point x="332" y="499"/>
      <point x="378" y="478"/>
      <point x="410" y="441" type="curve"/>
      <point x="273" y="272" type="line"/>
      <point x="122" y="87" type="line"/>
      <point x="120" y="87" type="line"/>
      <point x="98" y="123"/>
      <point x="86" y="172"/>
      <point x="86" y="229" type="curve"/>
      <point x="86" y="277" type="line" smooth="yes"/>
      <point x="86" y="413"/>
      <point x="153" y="499"/>
    </contour>
    <contour>
      <point x="273.0" y="0.0" type="move" name="bottom"/>
    </contour>
    <contour>
      <point x="273.0" y="540.0" type="move" name="top"/>
    </contour>
  </outline>
</glyph>
<glyph name="Aogonek" format="1">
  <advance width="600"/>
  <unicode hex="0104"/>
  <outline>
    <contour>
      <point x="32" y="0" type="line" name=""/>
      <point x="55" y="0" type="line"/>
      <point x="140" y="234" type="line"/>
      <point x="461" y="234" type="line"/>
      <point x="545" y="0" type="line"/>
      <point x="551" y="0" type="line"/>
      <point x="551" y="4" type="line"/>
      <point x="457" y="-50"/>
      <point x="437.0" y="-96"/>
      <point x="437" y="-133" type="curve" smooth="yes"/>
      <point x="437" y="-177"/>
      <point x="472" y="-202"/>
      <point x="517" y="-202" type="curve" smooth="yes"/>
      <point x="553" y="-202"/>
      <point x="579" y="-188"/>
      <point x="592" y="-170" type="curve"/>
      <point x="578" y="-159" type="line"/>
      <point x="568" y="-171"/>
      <point x="550" y="-184"/>
      <point x="518" y="-184" type="curve" smooth="yes"/>
      <point x="483" y="-184"/>
      <point x="459" y="-168"/>
      <point x="459" y="-132" type="curve" smooth="yes"/>
      <point x="459" y="-82"/>
      <point x="496" y="-48"/>
      <point x="568" y="0" type="curve"/>
      <point x="315" y="698" type="line"/>
      <point x="285" y="698" type="line"/>
    </contour>
    <contour>
      <point x="454" y="253" type="line"/>
      <point x="147" y="253" type="line"/>
      <point x="244" y="524" type="line"/>
      <point x="298" y="675" type="line"/>
      <point x="301" y="675" type="line"/>
      <point x="356" y="524" type="line"/>
    </contour>
    <contour>
      <point x="299.0" y="698.0" type="move" name="top"/>
    </contour>
  </outline>
</glyph>
<glyph name="aogonek" format="1">
  <advance width="519"/>
  <unicode hex="0105"/>
  <outline>
    <contour>
      <point x="499" y="19" type="line"/>
      <point x="414" y="19" type="line"/>
      <point x="414" y="352" type="line" smooth="yes"/>
      <point x="414" y="459"/>
      <point x="358" y="518"/>
      <point x="249" y="518" type="curve" smooth="yes"/>
      <point x="155" y="518"/>
      <point x="106" y="477"/>
      <point x="78" y="412" type="curve"/>
      <point x="96" y="404" type="line"/>
      <point x="124" y="470"/>
      <point x="173" y="499"/>
      <point x="249" y="499" type="curve" smooth="yes"/>
      <point x="343" y="499"/>
      <point x="393" y="453"/>
      <point x="393" y="349" type="curve" smooth="yes"/>
      <point x="393" y="275" type="line"/>
      <point x="251" y="275" type="line" smooth="yes"/>
      <point x="106" y="275"/>
      <point x="61" y="214"/>
      <point x="61" y="130" type="curve" smooth="yes"/>
      <point x="61" y="39"/>
      <point x="120" y="-12"/>
      <point x="224" y="-12" type="curve" smooth="yes" name=""/>
      <point x="317" y="-12"/>
      <point x="365" y="29"/>
      <point x="390" y="77" type="curve"/>
      <point x="403" y="77" type="line"/>
      <point x="393" y="87" type="line"/>
      <point x="393" y="29" type="line" smooth="yes"/>
      <point x="393" y="9"/>
      <point x="402" y="0"/>
      <point x="422" y="0" type="curve" smooth="yes" name=""/>
      <point x="482" y="0" type="line"/>
      <point x="472" y="10" type="line"/>
      <point x="472" y="-3" type="line"/>
      <point x="383" y="-54"/>
      <point x="359" y="-97"/>
      <point x="359" y="-135" type="curve" smooth="yes"/>
      <point x="359" y="-179"/>
      <point x="393" y="-202"/>
      <point x="438" y="-202" type="curve" smooth="yes"/>
      <point x="474" y="-202"/>
      <point x="500" y="-188"/>
      <point x="513" y="-170" type="curve"/>
      <point x="499" y="-159" type="line"/>
      <point x="489" y="-171"/>
      <point x="471" y="-184"/>
      <point x="439" y="-184" type="curve" smooth="yes"/>
      <point x="404" y="-184"/>
      <point x="380" y="-169"/>
      <point x="380" y="-132" type="curve" smooth="yes"/>
      <point x="380" y="-82"/>
      <point x="420" y="-51"/>
      <point x="499" y="0" type="curve"/>
    </contour>
    <contour>
      <point x="393" y="257" type="line"/>
      <point x="393" y="148" type="line" smooth="yes"/>
      <point x="393" y="54"/>
      <point x="314" y="7"/>
      <point x="224" y="7" type="curve" smooth="yes" name=""/>
      <point x="142" y="7"/>
      <point x="84" y="45"/>
      <point x="84" y="115" type="curve" smooth="yes"/>
      <point x="84" y="145" type="line" smooth="yes"/>
      <point x="84" y="212"/>
      <point x="133" y="257"/>
      <point x="252" y="257" type="curve" smooth="yes"/>
    </contour>
    <contour>
      <point x="249.0" y="540.0" type="move" name="top"/>
    </contour>
  </outline>
</glyph>
<glyph name="Dcroat" format="1">
  <advance width="661"/>
  <unicode hex="0110"/>
  <outline>
    <contour>
      <point x="111" y="0" type="line" name="hr00"/>
      <point x="315" y="0" type="line" smooth="yes"/>
      <point x="501" y="0"/>
      <point x="591" y="118"/>
      <point x="591" y="349" type="curve" smooth="yes"/>
      <point x="591" y="580"/>
      <point x="501" y="698"/>
      <point x="315" y="698" type="curve" smooth="yes"/>
      <point x="111" y="698" type="line"/>
      <point x="111" y="378" type="line"/>
      <point x="28" y="378" type="line"/>
      <point x="28" y="359" type="line"/>
      <point x="111" y="359" type="line"/>
    </contour>
    <contour>
      <point x="133" y="20" type="line"/>
      <point x="133" y="359" type="line"/>
      <point x="305" y="359" type="line"/>
      <point x="305" y="378" type="line"/>
      <point x="133" y="378" type="line"/>
      <point x="133" y="678" type="line"/>
      <point x="316" y="678" type="line" smooth="yes"/>
      <point x="489" y="678"/>
      <point x="567" y="560"/>
      <point x="567" y="379" type="curve" smooth="yes"/>
      <point x="567" y="319" type="line" smooth="yes"/>
      <point x="567" y="138"/>
      <point x="489" y="20"/>
      <point x="316" y="20" type="curve" smooth="yes"/>
    </contour>
  </outline>
</glyph>
<glyph name="dcroat" format="1">
  <advance width="568"/>
  <unicode hex="0111"/>
  <outline>
    <contour>
      <point x="439" y="0" type="line"/>
      <point x="460" y="0" type="line"/>
      <point x="460" y="629" type="line"/>
      <point x="526" y="629" type="line"/>
      <point x="526" y="647" type="line"/>
      <point x="460" y="647" type="line"/>
      <point x="460" y="740" type="line"/>
      <point x="439" y="740" type="line"/>
      <point x="439" y="647" type="line"/>
      <point x="276" y="647" type="line"/>
      <point x="276" y="629" type="line"/>
      <point x="439" y="629" type="line"/>
      <point x="439" y="428" type="line"/>
      <point x="436" y="428" type="line"/>
      <point x="415" y="472"/>
      <point x="361" y="518"/>
      <point x="272" y="518" type="curve" smooth="yes"/>
      <point x="139" y="518"/>
      <point x="60" y="429"/>
      <point x="60" y="253" type="curve" smooth="yes"/>
      <point x="60" y="77"/>
      <point x="139" y="-12"/>
      <point x="272" y="-12" type="curve" smooth="yes" name="hr01"/>
      <point x="361" y="-12"/>
      <point x="415" y="34"/>
      <point x="436" y="78" type="curve" name="hr02"/>
      <point x="439" y="78" type="line"/>
    </contour>
    <contour>
      <point x="272" y="7" type="curve" smooth="yes" name="hr03"/>
      <point x="151" y="7"/>
      <point x="83" y="92"/>
      <point x="83" y="229" type="curve" smooth="yes"/>
      <point x="83" y="277" type="line" smooth="yes"/>
      <point x="83" y="414"/>
      <point x="151" y="499"/>
      <point x="272" y="499" type="curve" smooth="yes"/>
      <point x="360" y="499"/>
      <point x="439" y="444"/>
      <point x="439" y="363" type="curve" smooth="yes"/>
      <point x="439" y="143" type="line" smooth="yes"/>
      <point x="439" y="62"/>
      <point x="360" y="7"/>
    </contour>
  </outline>
</glyph>
<glyph name="Hbar" format="1">
  <advance width="698"/>
  <unicode hex="0126"/>
  <outline>
    <contour>
      <point x="565" y="0" type="line" name="hr00"/>
      <point x="587" y="0" type="line"/>
      <point x="587" y="537" type="line"/>
      <point x="670" y="537" type="line"/>
      <point x="670" y="556" type="line"/>
      <point x="587" y="556" type="line"/>
      <point x="587" y="698" type="line"/>
      <point x="565" y="698" type="line"/>
      <point x="565" y="556" type="line"/>
      <point x="133" y="556" type="line"/>
      <point x="133" y="698" type="line"/>
      <point x="111" y="698" type="line"/>
      <point x="111" y="556" type="line"/>
      <point x="28" y="556" type="line"/>
      <point x="28" y="537" type="line"/>
      <point x="111" y="537" type="line"/>
      <point x="111" y="0" type="line"/>
      <point x="133" y="0" type="line"/>
      <point x="133" y="344" type="line"/>
      <point x="565" y="344" type="line"/>
    </contour>
    <contour>
      <point x="133" y="364" type="line"/>
      <point x="133" y="537" type="line"/>
      <point x="565" y="537" type="line"/>
      <point x="565" y="364" type="line"/>
    </contour>
  </outline>
</glyph>
<glyph name="iogonek" format="1">
  <advance width="231"/>
  <unicode hex="012F"/>
  <outline>
    <contour>
      <point x="105" y="506" type="line"/>
      <point x="105" y="0" type="line"/>
      <point x="112" y="0" type="line"/>
      <point x="112" y="6" type="line"/>
      <point x="46" y="-48"/>
      <point x="16.0" y="-85"/>
      <point x="16" y="-133" type="curve" smooth="yes"/>
      <point x="16" y="-177"/>
      <point x="50" y="-202"/>
      <point x="95" y="-202" type="curve" smooth="yes"/>
      <point x="131" y="-202"/>
      <point x="157" y="-188"/>
      <point x="170" y="-170" type="curve"/>
      <point x="156" y="-159" type="line"/>
      <point x="146" y="-171"/>
      <point x="128" y="-184"/>
      <point x="96" y="-184" type="curve" smooth="yes"/>
      <point x="61" y="-184"/>
      <point x="37" y="-167"/>
      <point x="37" y="-130" type="curve" smooth="yes"/>
      <point x="37" y="-84"/>
      <point x="68" y="-55"/>
      <point x="126" y="0" type="curve"/>
      <point x="126" y="506" type="line"/>
    </contour>
    <contour>
      <point x="116" y="673" type="curve" smooth="yes"/>
      <point x="133" y="673"/>
      <point x="139" y="683"/>
      <point x="139" y="694" type="curve" smooth="yes" name=""/>
      <point x="139" y="701" type="line" smooth="yes"/>
      <point x="139" y="712"/>
      <point x="133" y="722"/>
      <point x="116" y="722" type="curve" smooth="yes"/>
      <point x="99" y="722"/>
      <point x="93" y="712"/>
      <point x="93" y="701" type="curve" smooth="yes"/>
      <point x="93" y="694" type="line" smooth="yes"/>
      <point x="93" y="683"/>
      <point x="99" y="673"/>
    </contour>
  </outline>
</glyph>
<glyph name="kgreenlandic" format="1">
  <advance width="490"/>
  <unicode hex="0138"/>
  <outline>
    <contour>
      <point x="445" y="0" type="line" name=""/>
      <point x="471" y="0" type="line"/>
      <point x="230" y="282" type="line"/>
      <point x="454" y="506" type="line"/>
      <point x="427" y="506" type="line"/>
      <point x="210" y="289" type="line"/>
      <point x="129" y="209" type="line"/>
      <point x="126" y="209" type="line"/>
      <point x="126" y="289" type="line"/>
      <point x="126" y="506" type="line"/>
      <point x="105" y="506" type="line"/>
      <point x="105" y="0" type="line"/>
      <point x="126" y="0" type="line"/>
      <point x="126" y="180" type="line"/>
      <point x="215" y="267" type="line"/>
    </contour>
    <contour>
      <point x="270.0" y="0.0" type="move" name="bottom"/>
    </contour>
    <contour>
      <point x="270.0" y="540.0" type="move" name="top"/>
    </contour>
  </outline>
</glyph>
<glyph name="Lcaron" format="1">
  <advance width="475"/>
  <unicode hex="013D"/>
  <outline>
    <component base="L"/>
    <component base="caronslovak" xOffset="-7"/>
    <contour>
      <point x="292.0" y="0.0" type="move" name="bottom"/>
    </contour>
    <contour>
      <point x="119.0" y="698.0" type="move" name="top"/>
    </contour>
  </outline>
</glyph>
<glyph name="Eng" format="1">
  <advance width="692"/>
  <unicode hex="014A"/>
  <outline>
    <contour>
      <point x="129" y="0" type="line" name=""/>
      <point x="129" y="508" type="line"/>
      <point x="129" y="671" type="line"/>
      <point x="132" y="671" type="line"/>
      <point x="234" y="508" type="line"/>
      <point x="552" y="0" type="line"/>
      <point x="563" y="0" type="line"/>
      <point x="563" y="-181" type="line"/>
      <point x="478" y="-181" type="line"/>
      <point x="478" y="-200" type="line"/>
      <point x="555" y="-200" type="line" smooth="yes"/>
      <point x="575" y="-200"/>
      <point x="584" y="-191"/>
      <point x="584" y="-171" type="curve" smooth="yes"/>
      <point x="584" y="698" type="line"/>
      <point x="563" y="698" type="line"/>
      <point x="563" y="190" type="line"/>
      <point x="563" y="27" type="line"/>
      <point x="560" y="27" type="line"/>
      <point x="458" y="190" type="line"/>
      <point x="140" y="698" type="line"/>
      <point x="108" y="698" type="line"/>
      <point x="108" y="0" type="line"/>
    </contour>
    <contour>
      <point x="346.0" y="698.0" type="move" name="top"/>
    </contour>
  </outline>
</glyph>
<glyph name="eng" format="1">
  <advance width="556"/>
  <unicode hex="014B"/>
  <outline>
    <contour>
      <point x="355" y="-200" type="line"/>
      <point x="432" y="-200" type="line" smooth="yes"/>
      <point x="452" y="-200"/>
      <point x="461" y="-191"/>
      <point x="461" y="-171" type="curve" smooth="yes"/>
      <point x="461" y="325" type="line" smooth="yes"/>
      <point x="461" y="451"/>
      <point x="400" y="518"/>
      <point x="287" y="518" type="curve" smooth="yes"/>
      <point x="196" y="518"/>
      <point x="147" y="475"/>
      <point x="129" y="430" type="curve"/>
      <point x="126" y="430" type="line"/>
      <point x="126" y="506" type="line" name="hr01"/>
      <point x="105" y="506" type="line"/>
      <point x="105" y="0" type="line"/>
      <point x="126" y="0" type="line"/>
      <point x="126" y="362" type="line" smooth="yes"/>
      <point x="126" y="454"/>
      <point x="202" y="499"/>
      <point x="285" y="499" type="curve" smooth="yes" name="hr02"/>
      <point x="384" y="499"/>
      <point x="440" y="444"/>
      <point x="440" y="321" type="curve" smooth="yes"/>
      <point x="440" y="-181" type="line"/>
      <point x="355" y="-181" type="line"/>
    </contour>
  </outline>
</glyph>
<glyph name="OE" format="1">
  <advance width="967"/>
  <unicode hex="0152"/>
  <outline>
    <contour>
      <point x="895" y="0" type="line"/>
      <point x="895" y="20" type="line"/>
      <point x="536" y="20" type="line"/>
      <point x="536" y="344" type="line"/>
      <point x="883" y="344" type="line"/>
      <point x="883" y="364" type="line"/>
      <point x="536" y="364" type="line"/>
      <point x="536" y="678" type="line"/>
      <point x="895" y="678" type="line"/>
      <point x="895" y="698" type="line"/>
      <point x="514" y="698" type="line"/>
      <point x="482" y="703"/>
      <point x="430" y="710"/>
      <point x="370" y="710" type="curve" smooth="yes" name="hr01"/>
      <point x="177" y="710"/>
      <point x="70" y="589"/>
      <point x="70" y="349" type="curve" smooth="yes"/>
      <point x="70" y="109"/>
      <point x="177" y="-12"/>
      <point x="370" y="-12" type="curve" smooth="yes"/>
      <point x="430" y="-12"/>
      <point x="482" y="-5"/>
      <point x="514" y="0" type="curve" name="hr02"/>
    </contour>
    <contour>
      <point x="370" y="8" type="curve" smooth="yes" name="hr03"/>
      <point x="198" y="8"/>
      <point x="94" y="117"/>
      <point x="94" y="328" type="curve" smooth="yes"/>
      <point x="94" y="370" type="line" smooth="yes"/>
      <point x="94" y="581"/>
      <point x="198" y="690"/>
      <point x="370" y="690" type="curve" smooth="yes"/>
      <point x="430" y="690"/>
      <point x="480" y="683"/>
      <point x="514" y="676" type="curve"/>
      <point x="514" y="22" type="line"/>
      <point x="480" y="15"/>
      <point x="430" y="8"/>
    </contour>
  </outline>
</glyph>
<glyph name="tcedilla" format="1">
  <advance width="310"/>
  <unicode hex="0163"/>
  <outline>
    <contour>
      <point x="199" y="-202" type="curve" smooth="yes" name=""/>
      <point x="250" y="-202"/>
      <point x="281" y="-169"/>
      <point x="281" y="-131" type="curve" smooth="yes"/>
      <point x="281" y="-95"/>
      <point x="253" y="-72"/>
      <point x="214" y="-72" type="curve" smooth="yes"/>
      <point x="205" y="-72"/>
      <point x="193" y="-73"/>
      <point x="184" y="-75" type="curve"/>
      <point x="182" y="-73" type="line"/>
      <point x="200" y="0" type="line"/>
      <point x="259" y="0" type="line"/>
      <point x="259" y="19" type="line"/>
      <point x="146" y="19" type="line"/>
      <point x="146" y="487" type="line"/>
      <point x="267" y="487" type="line"/>
      <point x="267" y="506" type="line"/>
      <point x="146" y="506" type="line"/>
      <point x="146" y="650" type="line"/>
      <point x="125" y="650" type="line"/>
      <point x="125" y="531" type="line" smooth="yes"/>
      <point x="125" y="513"/>
      <point x="120" y="506"/>
      <point x="102" y="506" type="curve" smooth="yes"/>
      <point x="30" y="506" type="line"/>
      <point x="30" y="487" type="line"/>
      <point x="125" y="487" type="line"/>
      <point x="125" y="29" type="line" smooth="yes"/>
      <point x="125" y="9"/>
      <point x="134" y="0"/>
      <point x="154" y="0" type="curve" smooth="yes"/>
      <point x="191" y="0" type="line"/>
      <point x="184" y="8" type="line"/>
      <point x="162" y="-84" type="line"/>
      <point x="199" y="-86" type="line" smooth="yes"/>
      <point x="244" y="-88"/>
      <point x="260" y="-107"/>
      <point x="260" y="-132" type="curve" smooth="yes"/>
      <point x="260" y="-166"/>
      <point x="235" y="-184"/>
      <point x="199" y="-184" type="curve" smooth="yes"/>
      <point x="169" y="-184"/>
      <point x="145" y="-174"/>
      <point x="131" y="-157" type="curve"/>
      <point x="118" y="-170" type="line"/>
      <point x="130" y="-187"/>
      <point x="161" y="-202"/>
    </contour>
  </outline>
</glyph>
<glyph name="Tbar" format="1">
  <advance width="560"/>
  <unicode hex="0166"/>
  <outline>
    <contour>
      <point x="479" y="365" type="line" name="hr00"/>
      <point x="479" y="384" type="line"/>
      <point x="291" y="384" type="line"/>
      <point x="291" y="678" type="line"/>
      <point x="543" y="678" type="line"/>
      <point x="543" y="698" type="line"/>
      <point x="17" y="698" type="line"/>
      <point x="17" y="678" type="line"/>
      <point x="269" y="678" type="line"/>
      <point x="269" y="384" type="line"/>
      <point x="82" y="384" type="line"/>
      <point x="82" y="365" type="line"/>
      <point x="269" y="365" type="line"/>
      <point x="269" y="0" type="line"/>
      <point x="291" y="0" type="line"/>
      <point x="291" y="365" type="line"/>
    </contour>
  </outline>
</glyph>
<glyph name="uogonek" format="1">
  <advance width="556"/>
  <unicode hex="0173"/>
  <outline>
    <contour>
      <point x="451" y="506" type="line"/>
      <point x="430" y="506" type="line"/>
      <point x="430" y="144" type="line" smooth="yes"/>
      <point x="430" y="52"/>
      <point x="354" y="7"/>
      <point x="271" y="7" type="curve" smooth="yes" name=""/>
      <point x="172" y="7"/>
      <point x="116" y="62"/>
      <point x="116" y="185" type="curve" smooth="yes"/>
      <point x="116" y="506" type="line"/>
      <point x="95" y="506" type="line"/>
      <point x="95" y="181" type="line" smooth="yes"/>
      <point x="95" y="55"/>
      <point x="156" y="-12"/>
      <point x="269" y="-12" type="curve" smooth="yes"/>
      <point x="360" y="-12"/>
      <point x="409" y="31"/>
      <point x="427" y="76" type="curve"/>
      <point x="430" y="76" type="line"/>
      <point x="430" y="0" type="line"/>
      <point x="434" y="0" type="line"/>
      <point x="434" y="4" type="line"/>
      <point x="348" y="-53"/>
      <point x="331" y="-96"/>
      <point x="331" y="-130" type="curve" smooth="yes"/>
      <point x="331" y="-177"/>
      <point x="365" y="-202"/>
      <point x="410" y="-202" type="curve" smooth="yes"/>
      <point x="446" y="-202"/>
      <point x="472" y="-188"/>
      <point x="485" y="-170" type="curve"/>
      <point x="471" y="-159" type="line"/>
      <point x="461" y="-171"/>
      <point x="443" y="-184"/>
      <point x="411" y="-184" type="curve" smooth="yes"/>
      <point x="376" y="-184"/>
      <point x="352" y="-166"/>
      <point x="352" y="-127" type="curve" smooth="yes"/>
      <point x="352" y="-79"/>
      <point x="385" y="-52"/>
      <point x="451" y="0" type="curve"/>
    </contour>
    <contour>
      <point x="273.0" y="540.0" type="move" name="top"/>
    </contour>
  </outline>
</glyph>
<glyph name="Schwa" format="1">
  <advance width="680"/>
  <unicode hex="018F"/>
  <outline>
    <contour>
      <point x="70" y="351" type="line"/>
      <point x="70" y="349" type="line" smooth="yes" name="hr00"/>
      <point x="70" y="109"/>
      <point x="167" y="-12"/>
      <point x="340" y="-12" type="curve" smooth="yes"/>
      <point x="513" y="-12"/>
      <point x="610" y="109"/>
      <point x="610" y="349" type="curve" smooth="yes"/>
      <point x="610" y="589"/>
      <point x="511" y="710"/>
      <point x="340" y="710" type="curve" smooth="yes"/>
      <point x="216" y="710"/>
      <point x="131" y="648"/>
      <point x="93" y="524" type="curve"/>
      <point x="112" y="514" type="line"/>
      <point x="147" y="630"/>
      <point x="227" y="690"/>
      <point x="340" y="690" type="curve" smooth="yes"/>
      <point x="493" y="690"/>
      <point x="586" y="581"/>
      <point x="586" y="370" type="curve" smooth="yes"/>
      <point x="586" y="351" type="line"/>
    </contour>
    <contour>
      <point x="94" y="331" type="line"/>
      <point x="586" y="331" type="line"/>
      <point x="586" y="328" type="line" smooth="yes"/>
      <point x="586" y="117"/>
      <point x="493" y="8"/>
      <point x="340" y="8" type="curve" smooth="yes"/>
      <point x="187" y="8"/>
      <point x="94" y="117"/>
      <point x="94" y="328" type="curve" smooth="yes"/>
    </contour>
  </outline>
</glyph>
<glyph name="Ohorn" format="1">
  <advance width="680"/>
  <unicode hex="01A0"/>
  <outline>
    <contour>
      <point x="588" y="812" type="line"/>
      <point x="588" y="698" type="line"/>
      <point x="428" y="698" type="line"/>
      <point x="399" y="707"/>
      <point x="375" y="710"/>
      <point x="340" y="710" type="curve" smooth="yes" name=""/>
      <point x="167" y="710"/>
      <point x="70" y="589"/>
      <point x="70" y="349" type="curve" smooth="yes"/>
      <point x="70" y="109"/>
      <point x="167" y="-12"/>
      <point x="340" y="-12" type="curve" smooth="yes"/>
      <point x="513" y="-12"/>
      <point x="610" y="109"/>
      <point x="610" y="349" type="curve" smooth="yes"/>
      <point x="610" y="527"/>
      <point x="558" y="633"/>
      <point x="470" y="678" type="curve"/>
      <point x="470" y="680" type="line" name=""/>
      <point x="579" y="680" type="line" smooth="yes"/>
      <point x="599" y="680"/>
      <point x="608" y="689"/>
      <point x="608" y="709" type="curve" smooth="yes"/>
      <point x="608" y="812" type="line"/>
    </contour>
    <contour>
      <point x="340" y="8" type="curve" smooth="yes"/>
      <point x="187" y="8"/>
      <point x="94" y="117"/>
      <point x="94" y="328" type="curve" smooth="yes"/>
      <point x="94" y="370" type="line" smooth="yes"/>
      <point x="94" y="581"/>
      <point x="187" y="690"/>
      <point x="340" y="690" type="curve" smooth="yes" name=""/>
      <point x="493" y="690"/>
      <point x="586" y="581"/>
      <point x="586" y="370" type="curve" smooth="yes"/>
      <point x="586" y="328" type="line" smooth="yes"/>
      <point x="586" y="117"/>
      <point x="493" y="8"/>
    </contour>
    <contour>
      <point x="346.0" y="0.0" type="move" name="bottom"/>
    </contour>
    <contour>
      <point x="340.0" y="698.0" type="move" name="top"/>
    </contour>
  </outline>
</glyph>
<glyph name="ohorn" format="1">
  <advance width="540"/>
  <unicode hex="01A1"/>
  <outline>
    <contour>
      <point x="451" y="607" type="line"/>
      <point x="451" y="506" type="line"/>
      <point x="348" y="506" type="line"/>
      <point x="323" y="515"/>
      <point x="290" y="518"/>
      <point x="270" y="518" type="curve" smooth="yes" name=""/>
      <point x="138" y="518"/>
      <point x="60" y="428"/>
      <point x="60" y="253" type="curve" smooth="yes"/>
      <point x="60" y="78"/>
      <point x="138" y="-12"/>
      <point x="270" y="-12" type="curve" smooth="yes"/>
      <point x="402" y="-12"/>
      <point x="480" y="78"/>
      <point x="480" y="253" type="curve" smooth="yes"/>
      <point x="480" y="370"/>
      <point x="442" y="454"/>
      <point x="383" y="486" type="curve"/>
      <point x="383" y="488" type="line" name=""/>
      <point x="442" y="488" type="line" smooth="yes"/>
      <point x="462" y="488"/>
      <point x="471" y="497"/>
      <point x="471" y="517" type="curve" smooth="yes"/>
      <point x="471" y="607" type="line"/>
    </contour>
    <contour>
      <point x="270" y="7" type="curve" smooth="yes"/>
      <point x="150" y="7"/>
      <point x="83" y="93"/>
      <point x="83" y="229" type="curve" smooth="yes"/>
      <point x="83" y="277" type="line" smooth="yes"/>
      <point x="83" y="413"/>
      <point x="150" y="499"/>
      <point x="270" y="499" type="curve" smooth="yes" name=""/>
      <point x="390" y="499"/>
      <point x="457" y="413"/>
      <point x="457" y="277" type="curve" smooth="yes"/>
      <point x="457" y="229" type="line" smooth="yes"/>
      <point x="457" y="93"/>
      <point x="390" y="7"/>
    </contour>
    <contour>
      <point x="270.0" y="0.0" type="move" name="bottom"/>
    </contour>
    <contour>
      <point x="270.0" y="540.0" type="move" name="top"/>
    </contour>
  </outline>
</glyph>
<glyph name="Uhorn" format="1">
  <advance width="652"/>
  <unicode hex="01AF"/>
  <outline>
    <contour>
      <point x="100" y="698" type="line" name=""/>
      <point x="100" y="270" type="line" smooth="yes"/>
      <point x="100" y="63"/>
      <point x="158" y="-12"/>
      <point x="326" y="-12" type="curve" smooth="yes"/>
      <point x="494" y="-12"/>
      <point x="552" y="63"/>
      <point x="552" y="270" type="curve" smooth="yes"/>
      <point x="552" y="690" type="line"/>
      <point x="542" y="680" type="line"/>
      <point x="601" y="680" type="line" smooth="yes"/>
      <point x="621" y="680"/>
      <point x="630" y="689"/>
      <point x="630" y="709" type="curve" smooth="yes"/>
      <point x="630" y="809" type="line"/>
      <point x="610" y="809" type="line"/>
      <point x="610" y="698" type="line"/>
      <point x="530" y="698" type="line"/>
      <point x="530" y="268" type="line" smooth="yes"/>
      <point x="530" y="78"/>
      <point x="482" y="8"/>
      <point x="326" y="8" type="curve" smooth="yes"/>
      <point x="170" y="8"/>
      <point x="122" y="78"/>
      <point x="122" y="268" type="curve" smooth="yes"/>
      <point x="122" y="698" type="line"/>
    </contour>
    <contour>
      <point x="328.0" y="0.0" type="move" name="bottom"/>
    </contour>
    <contour>
      <point x="325.0" y="698.0" type="move" name="top"/>
    </contour>
  </outline>
</glyph>
<glyph name="uhorn" format="1">
  <advance width="556"/>
  <unicode hex="01B0"/>
  <outline>
    <contour>
      <point x="451" y="0" type="line"/>
      <point x="451" y="498" type="line"/>
      <point x="441" y="488" type="line"/>
      <point x="501" y="488" type="line" smooth="yes"/>
      <point x="521" y="488"/>
      <point x="530" y="497"/>
      <point x="530" y="517" type="curve" smooth="yes"/>
      <point x="530" y="617" type="line"/>
      <point x="510" y="617" type="line"/>
      <point x="510" y="506" type="line"/>
      <point x="430" y="506" type="line"/>
      <point x="430" y="144" type="line" smooth="yes"/>
      <point x="430" y="52"/>
      <point x="354" y="7"/>
      <point x="271" y="7" type="curve" smooth="yes"/>
      <point x="172" y="7"/>
      <point x="116" y="62"/>
      <point x="116" y="185" type="curve" smooth="yes"/>
      <point x="116" y="506" type="line"/>
      <point x="95" y="506" type="line"/>
      <point x="95" y="181" type="line" smooth="yes"/>
      <point x="95" y="55"/>
      <point x="156" y="-12"/>
      <point x="269" y="-12" type="curve" smooth="yes"/>
      <point x="360" y="-12"/>
      <point x="409" y="31"/>
      <point x="427" y="76" type="curve"/>
      <point x="430" y="76" type="line"/>
      <point x="430" y="0" type="line" name=""/>
    </contour>
    <contour>
      <point x="265.0" y="0.0" type="move" name="bottom"/>
    </contour>
    <contour>
      <point x="273.0" y="540.0" type="move" name="top"/>
    </contour>
  </outline>
</glyph>
<glyph name="schwa" format="1">
  <advance width="533"/>
  <unicode hex="0259"/>
  <outline>
    <contour>
      <point x="60" y="250" type="line" name=""/>
      <point x="60" y="240" type="line" smooth="yes"/>
      <point x="60" y="85"/>
      <point x="143" y="-12"/>
      <point x="265" y="-12" type="curve" smooth="yes"/>
      <point x="395" y="-12"/>
      <point x="473" y="80"/>
      <point x="473" y="253" type="curve" smooth="yes"/>
      <point x="473" y="428"/>
      <point x="393" y="518"/>
      <point x="261" y="518" type="curve" smooth="yes"/>
      <point x="164" y="518"/>
      <point x="98" y="465"/>
      <point x="68" y="382" type="curve"/>
      <point x="85" y="375" type="line"/>
      <point x="116" y="457"/>
      <point x="176" y="499"/>
      <point x="261" y="499" type="curve" smooth="yes"/>
      <point x="381" y="499"/>
      <point x="450" y="413"/>
      <point x="450" y="277" type="curve" smooth="yes"/>
      <point x="450" y="250" type="line"/>
    </contour>
    <contour>
      <point x="83" y="231" type="line"/>
      <point x="450" y="231" type="line"/>
      <point x="450" y="229" type="line" smooth="yes"/>
      <point x="450" y="93"/>
      <point x="383" y="7"/>
      <point x="265" y="7" type="curve" smooth="yes"/>
      <point x="156" y="7"/>
      <point x="83" y="94"/>
      <point x="83" y="227" type="curve" smooth="yes"/>
    </contour>
    <contour>
      <point x="265.0" y="0.0" type="move" name="bottom"/>
    </contour>
    <contour>
      <point x="259.0" y="540.0" type="move" name="top"/>
    </contour>
  </outline>
</glyph>
<glyph name="horncomb" format="1">
  <advance width="0"/>
  <unicode hex="031B"/>
  <outline>
    <contour>
      <point x="26" y="619" type="line" name="hr00"/>
      <point x="6" y="619" type="line"/>
      <point x="6" y="506" type="line"/>
      <point x="-74" y="506" type="line"/>
      <point x="-74" y="488" type="line"/>
      <point x="-3" y="488" type="line" smooth="yes"/>
      <point x="17" y="488"/>
      <point x="26" y="497"/>
      <point x="26" y="517" type="curve" smooth="yes"/>
    </contour>
  </outline>
</glyph>
<glyph name="dotbelowcomb" format="1">
  <advance width="0"/>
  <unicode hex="0323"/>
  <outline>
    <contour>
      <point x="0" y="-134" type="curve" smooth="yes" name="hr00"/>
      <point x="17" y="-134"/>
      <point x="23" y="-124"/>
      <point x="23" y="-113" type="curve" smooth="yes"/>
      <point x="23" y="-106" type="line" smooth="yes"/>
      <point x="23" y="-95"/>
      <point x="17" y="-85"/>
      <point x="0" y="-85" type="curve" smooth="yes"/>
      <point x="-17" y="-85"/>
      <point x="-23" y="-95"/>
      <point x="-23" y="-106" type="curve" smooth="yes"/>
      <point x="-23" y="-113" type="line" smooth="yes"/>
      <point x="-23" y="-124"/>
      <point x="-17" y="-134"/>
    </contour>
    <contour>
      <point x="0" y="0" type="move" name="_bottom"/>
    </contour>
  </outline>
</glyph>
<glyph name="pi" format="1">
  <advance width="556"/>
  <unicode hex="03C0"/>
  <outline>
    <contour>
      <point x="431" y="487" type="line" name="hr00"/>
      <point x="526" y="487" type="line"/>
      <point x="526" y="506" type="line"/>
      <point x="20" y="506" type="line"/>
      <point x="20" y="487" type="line"/>
      <point x="115" y="487" type="line"/>
      <point x="115" y="0" type="line"/>
      <point x="136" y="0" type="line"/>
      <point x="136" y="487" type="line"/>
      <point x="410" y="487" type="line"/>
      <point x="410" y="29" type="line" smooth="yes"/>
      <point x="410" y="9"/>
      <point x="419" y="0"/>
      <point x="439" y="0" type="curve" smooth="yes"/>
      <point x="526" y="0" type="line"/>
      <point x="526" y="19" type="line"/>
      <point x="431" y="19" type="line"/>
    </contour>
  </outline>
</glyph>
<glyph name="dagger" format="1">
  <advance width="561"/>
  <unicode hex="2020"/>
  <outline>
    <contour>
      <point x="291" y="-200" type="line" name="hr00"/>
      <point x="291" y="487" type="line"/>
      <point x="503" y="487" type="line"/>
      <point x="503" y="506" type="line"/>
      <point x="291" y="506" type="line"/>
      <point x="291" y="740" type="line"/>
      <point x="270" y="740" type="line"/>
      <point x="270" y="506" type="line"/>
      <point x="58" y="506" type="line"/>
      <point x="58" y="487" type="line"/>
      <point x="270" y="487" type="line"/>
      <point x="270" y="-200" type="line"/>
    </contour>
  </outline>
</glyph>
<glyph name="daggerdbl" format="1">
  <advance width="561"/>
  <unicode hex="2021"/>
  <outline>
    <contour>
      <point x="291" y="-200" type="line" name="hr00"/>
      <point x="291" y="34" type="line"/>
      <point x="503" y="34" type="line"/>
      <point x="503" y="53" type="line"/>
      <point x="291" y="53" type="line"/>
      <point x="291" y="487" type="line"/>
      <point x="503" y="487" type="line"/>
      <point x="503" y="506" type="line"/>
      <point x="291" y="506" type="line"/>
      <point x="291" y="740" type="line"/>
      <point x="270" y="740" type="line"/>
      <point x="270" y="506" type="line"/>
      <point x="58" y="506" type="line"/>
      <point x="58" y="487" type="line"/>
      <point x="270" y="487" type="line"/>
      <point x="270" y="53" type="line"/>
      <point x="58" y="53" type="line"/>
      <point x="58" y="34" type="line"/>
      <point x="270" y="34" type="line"/>
      <point x="270" y="-200" type="line"/>
    </contour>
  </outline>
</glyph>
<glyph name="guilsinglleft" format="1">
  <advance width="292"/>
  <unicode hex="2039"/>
  <outline>
    <contour>
      <point x="241" y="121" type="line" name=""/>
      <point x="58" y="293" type="line"/>
      <point x="58" y="295" type="line"/>
      <point x="241" y="467" type="line"/>
      <point x="232" y="482" type="line"/>
      <point x="34" y="304" type="line"/>
      <point x="34" y="284" type="line"/>
      <point x="232" y="106" type="line"/>
    </contour>
  </outline>
</glyph>
<glyph name="guilsinglright" format="1">
  <advance width="292"/>
  <unicode hex="203A"/>
  <outline>
    <contour>
      <point x="51" y="121" type="line"/>
      <point x="60" y="106" type="line" name=""/>
      <point x="258" y="284" type="line"/>
      <point x="258" y="304" type="line"/>
      <point x="60" y="482" type="line"/>
      <point x="51" y="467" type="line"/>
      <point x="234" y="295" type="line"/>
      <point x="234" y="293" type="line"/>
    </contour>
  </outline>
</glyph>
<glyph name="foursuperior" format="1">
  <advance width="346"/>
  <unicode hex="2074"/>
  <outline>
    <contour>
      <point x="252" y="329" type="line" name="hr00"/>
      <point x="252" y="418" type="line"/>
      <point x="318" y="418" type="line"/>
      <point x="318" y="435" type="line"/>
      <point x="252" y="435" type="line"/>
      <point x="252" y="698" type="line"/>
      <point x="224" y="698" type="line"/>
      <point x="20" y="437" type="line"/>
      <point x="20" y="418" type="line"/>
      <point x="233" y="418" type="line"/>
      <point x="233" y="329" type="line"/>
    </contour>
    <contour>
      <point x="233" y="435" type="line"/>
      <point x="40" y="435" type="line"/>
      <point x="230" y="679" type="line"/>
      <point x="233" y="679" type="line"/>
    </contour>
  </outline>
</glyph>
<glyph name="eightsuperior" format="1">
  <advance width="396"/>
  <unicode hex="2078"/>
  <outline>
    <contour>
      <point x="198" y="323" type="curve" smooth="yes"/>
      <point x="289" y="323"/>
      <point x="335" y="364"/>
      <point x="335" y="426" type="curve" smooth="yes"/>
      <point x="335" y="480"/>
      <point x="300" y="507"/>
      <point x="248" y="518" type="curve"/>
      <point x="248" y="521" type="line"/>
      <point x="303" y="535"/>
      <point x="321" y="573"/>
      <point x="321" y="610" type="curve" smooth="yes" name="hr01"/>
      <point x="321" y="669"/>
      <point x="275" y="704"/>
      <point x="198" y="704" type="curve" smooth="yes"/>
      <point x="121" y="704"/>
      <point x="75" y="669"/>
      <point x="75" y="610" type="curve" smooth="yes"/>
      <point x="75" y="573"/>
      <point x="93" y="535"/>
      <point x="148" y="521" type="curve"/>
      <point x="148" y="518" type="line"/>
      <point x="96" y="507"/>
      <point x="61" y="480"/>
      <point x="61" y="426" type="curve" smooth="yes" name="hr02"/>
      <point x="61" y="364"/>
      <point x="107" y="323"/>
    </contour>
    <contour>
      <point x="198" y="528" type="curve" smooth="yes"/>
      <point x="127" y="528"/>
      <point x="95" y="558"/>
      <point x="95" y="604" type="curve" smooth="yes" name="hr03"/>
      <point x="95" y="611" type="line" smooth="yes"/>
      <point x="95" y="657"/>
      <point x="127" y="687"/>
      <point x="198" y="687" type="curve" smooth="yes"/>
      <point x="269" y="687"/>
      <point x="301" y="657"/>
      <point x="301" y="611" type="curve" smooth="yes"/>
      <point x="301" y="604" type="line" smooth="yes"/>
      <point x="301" y="558"/>
      <point x="269" y="528"/>
    </contour>
    <contour>
      <point x="198" y="340" type="curve" smooth="yes"/>
      <point x="122" y="340"/>
      <point x="81" y="370"/>
      <point x="81" y="421" type="curve" smooth="yes" name="hr04"/>
      <point x="81" y="430" type="line" smooth="yes"/>
      <point x="81" y="481"/>
      <point x="122" y="511"/>
      <point x="198" y="511" type="curve" smooth="yes"/>
      <point x="274" y="511"/>
      <point x="315" y="481"/>
      <point x="315" y="430" type="curve" smooth="yes"/>
      <point x="315" y="421" type="line" smooth="yes"/>
      <point x="315" y="370"/>
      <point x="274" y="340"/>
    </contour>
  </outline>
</glyph>
<glyph name="oneinferior" format="1">
  <advance width="373"/>
  <unicode hex="2081"/>
  <outline>
    <contour>
      <point x="326" y="0" type="line" name="hr00"/>
      <point x="326" y="17" type="line"/>
      <point x="208" y="17" type="line"/>
      <point x="208" y="369" type="line"/>
      <point x="176" y="369" type="line"/>
      <point x="49" y="262" type="line"/>
      <point x="60" y="249" type="line"/>
      <point x="185" y="354" type="line"/>
      <point x="189" y="354" type="line"/>
      <point x="189" y="17" type="line"/>
      <point x="60" y="17" type="line"/>
      <point x="60" y="0" type="line"/>
    </contour>
  </outline>
</glyph>
<glyph name="fourinferior" format="1">
  <advance width="346"/>
  <unicode hex="2084"/>
  <outline>
    <contour>
      <point x="252" y="0" type="line" name="hr00"/>
      <point x="252" y="89" type="line"/>
      <point x="318" y="89" type="line"/>
      <point x="318" y="106" type="line"/>
      <point x="252" y="106" type="line"/>
      <point x="252" y="369" type="line"/>
      <point x="224" y="369" type="line"/>
      <point x="20" y="108" type="line"/>
      <point x="20" y="89" type="line"/>
      <point x="233" y="89" type="line"/>
      <point x="233" y="0" type="line"/>
    </contour>
    <contour>
      <point x="233" y="106" type="line"/>
      <point x="40" y="106" type="line"/>
      <point x="230" y="350" type="line"/>
      <point x="233" y="350" type="line"/>
    </contour>
  </outline>
</glyph>
<glyph name="seveninferior" format="1">
  <advance width="344"/>
  <unicode hex="2087"/>
  <outline>
    <contour>
      <point x="144" y="0" type="line" name="hr00"/>
      <point x="298" y="350" type="line"/>
      <point x="298" y="369" type="line"/>
      <point x="46" y="369" type="line"/>
      <point x="46" y="262" type="line"/>
      <point x="64" y="262" type="line"/>
      <point x="64" y="352" type="line"/>
      <point x="280" y="352" type="line"/>
      <point x="124" y="0" type="line"/>
    </contour>
  </outline>
</glyph>
<glyph name="eightinferior" format="1">
  <advance width="396"/>
  <unicode hex="2088"/>
  <outline>
    <contour>
      <point x="198" y="-6" type="curve" smooth="yes"/>
      <point x="289" y="-6"/>
      <point x="335" y="35"/>
      <point x="335" y="97" type="curve" smooth="yes"/>
      <point x="335" y="151"/>
      <point x="300" y="178"/>
      <point x="248" y="189" type="curve"/>
      <point x="248" y="192" type="line"/>
      <point x="303" y="206"/>
      <point x="321" y="244"/>
      <point x="321" y="281" type="curve" smooth="yes" name="hr01"/>
      <point x="321" y="340"/>
      <point x="275" y="375"/>
      <point x="198" y="375" type="curve" smooth="yes"/>
      <point x="121" y="375"/>
      <point x="75" y="340"/>
      <point x="75" y="281" type="curve" smooth="yes"/>
      <point x="75" y="244"/>
      <point x="93" y="206"/>
      <point x="148" y="192" type="curve"/>
      <point x="148" y="189" type="line"/>
      <point x="96" y="178"/>
      <point x="61" y="151"/>
      <point x="61" y="97" type="curve" smooth="yes" name="hr02"/>
      <point x="61" y="35"/>
      <point x="107" y="-6"/>
    </contour>
    <contour>
      <point x="198" y="11" type="curve" smooth="yes"/>
      <point x="122" y="11"/>
      <point x="81" y="41"/>
      <point x="81" y="92" type="curve" smooth="yes"/>
      <point x="81" y="101" type="line" smooth="yes"/>
      <point x="81" y="152"/>
      <point x="122" y="182"/>
      <point x="198" y="182" type="curve" smooth="yes"/>
      <point x="274" y="182"/>
      <point x="315" y="152"/>
      <point x="315" y="101" type="curve" smooth="yes"/>
      <point x="315" y="92" type="line" smooth="yes"/>
      <point x="315" y="41"/>
      <point x="274" y="11"/>
    </contour>
    <contour>
      <point x="198" y="199" type="curve" smooth="yes"/>
      <point x="127" y="199"/>
      <point x="95" y="229"/>
      <point x="95" y="275" type="curve" smooth="yes" name="hr03"/>
      <point x="95" y="282" type="line" smooth="yes"/>
      <point x="95" y="328"/>
      <point x="127" y="358"/>
      <point x="198" y="358" type="curve" smooth="yes"/>
      <point x="269" y="358"/>
      <point x="301" y="328"/>
      <point x="301" y="282" type="curve" smooth="yes"/>
      <point x="301" y="275" type="line" smooth="yes"/>
      <point x="301" y="229"/>
      <point x="269" y="199"/>
    </contour>
  </outline>
</glyph>
<glyph name="coloncurrency" format="1">
  <advance width="610"/>
  <unicode hex="20A1"/>
  <outline>
    <contour>
      <point x="198" y="-82" type="line"/>
      <point x="212" y="36" type="line"/>
      <point x="213" y="43" type="line"/>
      <point x="292" y="684" type="line"/>
      <point x="293" y="691" type="line"/>
      <point x="304" y="780" type="line"/>
      <point x="285" y="780" type="line"/>
      <point x="274" y="691" type="line"/>
      <point x="273" y="684" type="line"/>
      <point x="194" y="43" type="line"/>
      <point x="193" y="36" type="line"/>
      <point x="179" y="-82" type="line"/>
    </contour>
    <contour>
      <point x="333" y="-82" type="line"/>
      <point x="344" y="7" type="line"/>
      <point x="345" y="14" type="line"/>
      <point x="426" y="670" type="line"/>
      <point x="427" y="677" type="line"/>
      <point x="439" y="780" type="line"/>
      <point x="420" y="780" type="line"/>
      <point x="408" y="677" type="line"/>
      <point x="407" y="670" type="line"/>
      <point x="326" y="14" type="line"/>
      <point x="325" y="7" type="line"/>
      <point x="314" y="-82" type="line"/>
    </contour>
    <contour>
      <point x="70" y="349" type="curve" smooth="yes"/>
      <point x="70" y="86"/>
      <point x="182" y="-2"/>
      <point x="329" y="-2" type="curve" smooth="yes"/>
      <point x="438" y="-2"/>
      <point x="514" y="59"/>
      <point x="550" y="150" type="curve"/>
      <point x="531" y="158" type="line"/>
      <point x="497" y="71"/>
      <point x="430" y="18"/>
      <point x="329" y="18" type="curve" smooth="yes"/>
      <point x="180" y="18"/>
      <point x="94" y="117"/>
      <point x="94" y="328" type="curve" smooth="yes"/>
      <point x="94" y="370" type="line" smooth="yes"/>
      <point x="94" y="585"/>
      <point x="181" y="680"/>
      <point x="329" y="680" type="curve" smooth="yes"/>
      <point x="404" y="680"/>
      <point x="484" y="644"/>
      <point x="526" y="548" type="curve"/>
      <point x="545" y="557" type="line"/>
      <point x="509" y="638"/>
      <point x="435" y="700"/>
      <point x="329" y="700" type="curve" smooth="yes"/>
      <point x="162" y="700"/>
      <point x="70" y="589"/>
    </contour>
  </outline>
</glyph>
<glyph name="lira" format="1">
  <advance width="579"/>
  <unicode hex="20A4"/>
  <outline>
    <contour>
      <point x="513.0" y="20.0" type="line" name=""/>
      <point x="107.0" y="20.0" type="line"/>
      <point x="107.0" y="22.0" type="line"/>
      <point x="168.0" y="69.0"/>
      <point x="201" y="142"/>
      <point x="201" y="222" type="curve" smooth="yes"/>
      <point x="201" y="339"/>
      <point x="134" y="401"/>
      <point x="134.0" y="510.0" type="curve" smooth="yes"/>
      <point x="134" y="623"/>
      <point x="210.0" y="690.0"/>
      <point x="320.0" y="690.0" type="curve" smooth="yes"/>
      <point x="396.0" y="690.0"/>
      <point x="456.0" y="657.0"/>
      <point x="500.0" y="582.0" type="curve"/>
      <point x="519.0" y="592.0" type="line"/>
      <point x="473.0" y="671.0"/>
      <point x="404.0" y="710.0"/>
      <point x="319.0" y="710.0" type="curve" smooth="yes"/>
      <point x="200.0" y="710.0"/>
      <point x="112" y="635"/>
      <point x="112.0" y="510.0" type="curve" smooth="yes"/>
      <point x="112" y="396"/>
      <point x="179" y="337"/>
      <point x="179" y="221" type="curve" smooth="yes"/>
      <point x="179" y="135"/>
      <point x="139.0" y="67.0"/>
      <point x="83.0" y="25.0" type="curve"/>
      <point x="83.0" y="0.0" type="line"/>
      <point x="513.0" y="0.0" type="line"/>
    </contour>
    <contour>
      <point x="68" y="408" type="line"/>
      <point x="419" y="408" type="line"/>
      <point x="419" y="427" type="line"/>
      <point x="68" y="427" type="line"/>
    </contour>
    <contour>
      <point x="68" y="251" type="line"/>
      <point x="419" y="251" type="line"/>
      <point x="419" y="270" type="line"/>
      <point x="68" y="270" type="line"/>
    </contour>
  </outline>
</glyph>
<glyph name="naira" format="1">
  <advance width="665"/>
  <unicode hex="20A6"/>
  <outline>
    <contour>
      <point x="524" y="0" type="line"/>
      <point x="554" y="0" type="line"/>
      <point x="554" y="261" type="line"/>
      <point x="649" y="261" type="line"/>
      <point x="649" y="280" type="line"/>
      <point x="554" y="280" type="line"/>
      <point x="554" y="418" type="line"/>
      <point x="649" y="418" type="line"/>
      <point x="649" y="437" type="line"/>
      <point x="554" y="437" type="line"/>
      <point x="554" y="698" type="line"/>
      <point x="534" y="698" type="line"/>
      <point x="534" y="437" type="line"/>
      <point x="293" y="437" type="line"/>
      <point x="141" y="698" type="line"/>
      <point x="111" y="698" type="line"/>
      <point x="111" y="437" type="line"/>
      <point x="17" y="437" type="line"/>
      <point x="17" y="418" type="line" name=""/>
      <point x="111" y="418" type="line"/>
      <point x="111" y="280" type="line"/>
      <point x="16" y="280" type="line"/>
      <point x="16" y="261" type="line"/>
      <point x="111" y="261" type="line"/>
      <point x="111" y="0" type="line"/>
      <point x="131" y="0" type="line"/>
      <point x="131" y="261" type="line"/>
      <point x="372" y="261" type="line"/>
    </contour>
    <contour>
      <point x="131" y="280" type="line"/>
      <point x="131" y="501" type="line"/>
      <point x="131" y="670" type="line"/>
      <point x="134" y="670" type="line"/>
      <point x="232" y="501" type="line"/>
      <point x="361" y="280" type="line"/>
    </contour>
    <contour>
      <point x="304" y="418" type="line"/>
      <point x="534" y="418" type="line"/>
      <point x="534" y="197" type="line"/>
      <point x="534" y="28" type="line"/>
      <point x="531" y="28" type="line"/>
      <point x="432" y="197" type="line"/>
    </contour>
  </outline>
</glyph>
<glyph name="rupee" format="1">
  <advance width="719"/>
  <unicode hex="20A8"/>
  <outline>
    <contour>
      <point x="130" y="0" type="line"/>
      <point x="130" y="332" type="line"/>
      <point x="253" y="332" type="line"/>
      <point x="392" y="79" type="line" smooth="yes"/>
      <point x="427" y="16"/>
      <point x="476" y="-12"/>
      <point x="551" y="-12" type="curve" smooth="yes" name=""/>
      <point x="624" y="-12"/>
      <point x="679" y="38"/>
      <point x="679" y="105" type="curve" smooth="yes"/>
      <point x="679" y="155"/>
      <point x="658" y="184"/>
      <point x="605" y="224" type="curve" smooth="yes"/>
      <point x="565" y="254" type="line" smooth="yes"/>
      <point x="511" y="294"/>
      <point x="486" y="326"/>
      <point x="486" y="375" type="curve" smooth="yes"/>
      <point x="486" y="419"/>
      <point x="515" y="453"/>
      <point x="573" y="453" type="curve" smooth="yes"/>
      <point x="608" y="453"/>
      <point x="633" y="442"/>
      <point x="656" y="421" type="curve"/>
      <point x="670" y="437" type="line"/>
      <point x="644" y="461"/>
      <point x="610" y="473"/>
      <point x="572" y="473" type="curve" smooth="yes"/>
      <point x="497" y="473"/>
      <point x="464" y="423"/>
      <point x="464" y="375" type="curve" smooth="yes"/>
      <point x="464" y="318"/>
      <point x="492" y="283"/>
      <point x="552" y="238" type="curve" smooth="yes"/>
      <point x="592" y="208" type="line" smooth="yes"/>
      <point x="643" y="170"/>
      <point x="657" y="148"/>
      <point x="657" y="105" type="curve" smooth="yes"/>
      <point x="657" y="50"/>
      <point x="611" y="8"/>
      <point x="551" y="8" type="curve" smooth="yes"/>
      <point x="482" y="8"/>
      <point x="440" y="37"/>
      <point x="409" y="93" type="curve" smooth="yes"/>
      <point x="275" y="337" type="line"/>
      <point x="358" y="355"/>
      <point x="395" y="419"/>
      <point x="395" y="515" type="curve" smooth="yes"/>
      <point x="395" y="629"/>
      <point x="343" y="698"/>
      <point x="222" y="698" type="curve" smooth="yes"/>
      <point x="108" y="698" type="line"/>
      <point x="108" y="0" type="line" name=""/>
    </contour>
    <contour>
      <point x="130" y="352" type="line"/>
      <point x="130" y="678" type="line"/>
      <point x="222" y="678" type="line" smooth="yes"/>
      <point x="317" y="678"/>
      <point x="371" y="629"/>
      <point x="371" y="537" type="curve" smooth="yes"/>
      <point x="371" y="493" type="line" smooth="yes"/>
      <point x="371" y="405"/>
      <point x="318" y="352"/>
      <point x="235" y="352" type="curve" smooth="yes"/>
    </contour>
  </outline>
</glyph>
<glyph name="won" format="1">
  <advance width="900"/>
  <unicode hex="20A9"/>
  <outline>
    <contour>
      <point x="640" y="0" type="line"/>
      <point x="670" y="0" type="line"/>
      <point x="738" y="256" type="line"/>
      <point x="859" y="256" type="line"/>
      <point x="859" y="275" type="line"/>
      <point x="743" y="275" type="line"/>
      <point x="780" y="413" type="line"/>
      <point x="859" y="413" type="line"/>
      <point x="859" y="432" type="line"/>
      <point x="785" y="432" type="line"/>
      <point x="856" y="698" type="line"/>
      <point x="834" y="698" type="line"/>
      <point x="763" y="432" type="line"/>
      <point x="540" y="432" type="line"/>
      <point x="466" y="698" type="line"/>
      <point x="434" y="698" type="line"/>
      <point x="359" y="432" type="line"/>
      <point x="138" y="432" type="line"/>
      <point x="67" y="698" type="line"/>
      <point x="44" y="698" type="line"/>
      <point x="115" y="432" type="line"/>
      <point x="41" y="432" type="line"/>
      <point x="41" y="413" type="line"/>
      <point x="120" y="413" type="line"/>
      <point x="157" y="275" type="line"/>
      <point x="41" y="275" type="line"/>
      <point x="41" y="256" type="line" name=""/>
      <point x="162" y="256" type="line"/>
      <point x="230" y="0" type="line"/>
      <point x="260" y="0" type="line"/>
      <point x="332" y="256" type="line"/>
      <point x="568" y="256" type="line"/>
    </contour>
    <contour>
      <point x="247" y="30" type="line"/>
      <point x="244" y="30" type="line"/>
      <point x="186" y="248" type="line"/>
      <point x="143" y="413" type="line"/>
      <point x="354" y="413" type="line"/>
      <point x="308" y="248" type="line"/>
    </contour>
    <contour>
      <point x="653" y="30" type="line"/>
      <point x="592" y="248" type="line"/>
      <point x="545" y="413" type="line"/>
      <point x="758" y="413" type="line"/>
      <point x="714" y="248" type="line"/>
      <point x="656" y="30" type="line"/>
    </contour>
    <contour>
      <point x="388" y="457" type="line"/>
      <point x="448" y="674" type="line"/>
      <point x="451" y="674" type="line"/>
      <point x="512" y="457" type="line"/>
      <point x="563" y="275" type="line"/>
      <point x="337" y="275" type="line"/>
    </contour>
  </outline>
</glyph>
<glyph name="sheqel" format="1">
  <advance width="766"/>
  <unicode hex="20AA"/>
  <outline>
    <contour>
      <point x="284" y="0" type="line" name="hr00"/>
      <point x="527" y="0" type="line" smooth="yes"/>
      <point x="610" y="0"/>
      <point x="658" y="50"/>
      <point x="658" y="156" type="curve" smooth="yes"/>
      <point x="658" y="698" type="line"/>
      <point x="636" y="698" type="line"/>
      <point x="636" y="156" type="line" smooth="yes"/>
      <point x="636" y="51"/>
      <point x="584" y="20"/>
      <point x="527" y="20" type="curve" smooth="yes"/>
      <point x="306" y="20" type="line"/>
      <point x="306" y="572" type="line"/>
      <point x="284" y="572" type="line"/>
    </contour>
    <contour>
      <point x="130" y="0" type="line"/>
      <point x="130" y="678" type="line"/>
      <point x="341" y="678" type="line" smooth="yes"/>
      <point x="398" y="678"/>
      <point x="460" y="647"/>
      <point x="460" y="542" type="curve" smooth="yes"/>
      <point x="460" y="126" type="line"/>
      <point x="482" y="126" type="line"/>
      <point x="482" y="542" type="line" smooth="yes"/>
      <point x="482" y="648"/>
      <point x="424" y="698"/>
      <point x="341" y="698" type="curve" smooth="yes"/>
      <point x="108" y="698" type="line"/>
      <point x="108" y="0" type="line"/>
    </contour>
  </outline>
</glyph>
<glyph name="Euro" format="1">
  <advance width="610"/>
  <unicode hex="20AC"/>
  <outline>
    <contour>
      <point x="329" y="-12" type="curve" smooth="yes"/>
      <point x="436" y="-12"/>
      <point x="514" y="49"/>
      <point x="550" y="140" type="curve" name=""/>
      <point x="531" y="148" type="line"/>
      <point x="497" y="61"/>
      <point x="428" y="8"/>
      <point x="329" y="8" type="curve" smooth="yes"/>
      <point x="200" y="8"/>
      <point x="114" y="92"/>
      <point x="97" y="263" type="curve"/>
      <point x="360" y="263" type="line"/>
      <point x="360" y="282" type="line"/>
      <point x="96" y="282" type="line"/>
      <point x="93" y="322"/>
      <point x="94" y="380"/>
      <point x="95" y="416" type="curve"/>
      <point x="360" y="416" type="line"/>
      <point x="360" y="435" type="line"/>
      <point x="97" y="435" type="line"/>
      <point x="114" y="606"/>
      <point x="199" y="690"/>
      <point x="329" y="690" type="curve" smooth="yes"/>
      <point x="420" y="690"/>
      <point x="490" y="640"/>
      <point x="526" y="558" type="curve"/>
      <point x="545" y="567" type="line"/>
      <point x="507" y="652"/>
      <point x="431" y="710"/>
      <point x="329" y="710" type="curve" smooth="yes"/>
      <point x="164" y="710"/>
      <point x="70" y="589"/>
      <point x="70" y="349" type="curve" smooth="yes"/>
      <point x="70" y="109"/>
      <point x="164" y="-12"/>
    </contour>
  </outline>
</glyph>
<glyph name="kip" format="1">
  <advance width="569"/>
  <unicode hex="20AD"/>
  <outline>
    <contour>
      <point x="133" y="358" type="line" name=""/>
      <point x="229" y="358" type="line"/>
      <point x="510" y="0" type="line"/>
      <point x="536" y="0" type="line"/>
      <point x="323" y="273" type="line"/>
      <point x="257" y="358" type="line"/>
      <point x="507" y="358" type="line"/>
      <point x="507" y="378" type="line"/>
      <point x="256" y="378" type="line"/>
      <point x="326" y="463" type="line"/>
      <point x="520" y="698" type="line"/>
      <point x="494" y="698" type="line"/>
      <point x="229" y="378" type="line"/>
      <point x="133" y="378" type="line"/>
      <point x="133" y="698" type="line"/>
      <point x="111" y="698" type="line"/>
      <point x="111" y="378" type="line"/>
      <point x="16" y="378" type="line"/>
      <point x="16" y="358" type="line"/>
      <point x="111" y="358" type="line"/>
      <point x="111" y="0" type="line"/>
      <point x="133" y="0" type="line"/>
    </contour>
  </outline>
</glyph>
<glyph name="tugrik" format="1">
  <advance width="580"/>
  <unicode hex="20AE"/>
  <outline>
    <contour>
      <point x="457" y="329" type="line" name="hr00"/>
      <point x="457" y="350" type="line"/>
      <point x="301" y="274" type="line"/>
      <point x="301" y="402" type="line"/>
      <point x="457" y="478" type="line"/>
      <point x="457" y="499" type="line"/>
      <point x="301" y="423" type="line"/>
      <point x="301" y="678" type="line"/>
      <point x="553" y="678" type="line"/>
      <point x="553" y="698" type="line"/>
      <point x="27" y="698" type="line"/>
      <point x="27" y="678" type="line"/>
      <point x="279" y="678" type="line"/>
      <point x="279" y="414" type="line"/>
      <point x="123" y="338" type="line"/>
      <point x="123" y="317" type="line"/>
      <point x="279" y="393" type="line"/>
      <point x="279" y="265" type="line"/>
      <point x="123" y="189" type="line"/>
      <point x="123" y="168" type="line"/>
      <point x="279" y="244" type="line"/>
      <point x="279" y="0" type="line"/>
      <point x="301" y="0" type="line"/>
      <point x="301" y="253" type="line"/>
    </contour>
  </outline>
</glyph>
<glyph name="peso" format="1">
  <advance width="607"/>
  <unicode hex="20B1"/>
  <outline>
    <contour>
      <point x="133" y="257" type="line" name=""/>
      <point x="335" y="257" type="line" smooth="yes"/>
      <point x="430" y="257"/>
      <point x="488" y="309"/>
      <point x="504" y="393" type="curve"/>
      <point x="591" y="393" type="line"/>
      <point x="591" y="412" type="line"/>
      <point x="506" y="412" type="line"/>
      <point x="506" y="543" type="line"/>
      <point x="591" y="543" type="line"/>
      <point x="591" y="562" type="line"/>
      <point x="504" y="562" type="line"/>
      <point x="488" y="646"/>
      <point x="430" y="698"/>
      <point x="335" y="698" type="curve" smooth="yes"/>
      <point x="111" y="698" type="line"/>
      <point x="111" y="562" type="line"/>
      <point x="16" y="562" type="line"/>
      <point x="16" y="543" type="line"/>
      <point x="111" y="543" type="line"/>
      <point x="111" y="412" type="line"/>
      <point x="16" y="412" type="line"/>
      <point x="16" y="393" type="line"/>
      <point x="111" y="393" type="line"/>
      <point x="111" y="0" type="line"/>
      <point x="133" y="0" type="line"/>
    </contour>
    <contour>
      <point x="133" y="678" type="line"/>
      <point x="335" y="678" type="line" smooth="yes"/>
      <point x="423" y="678"/>
      <point x="471" y="625"/>
      <point x="482" y="562" type="curve"/>
      <point x="133" y="562" type="line"/>
    </contour>
    <contour>
      <point x="133" y="412" type="line"/>
      <point x="133" y="543" type="line"/>
      <point x="484" y="543" type="line"/>
      <point x="484" y="412" type="line"/>
    </contour>
    <contour>
      <point x="133" y="277" type="line"/>
      <point x="133" y="393" type="line"/>
      <point x="482" y="393" type="line"/>
      <point x="471" y="330"/>
      <point x="423" y="277"/>
      <point x="335" y="277" type="curve" smooth="yes"/>
    </contour>
  </outline>
</glyph>
<glyph name="guarani" format="1">
  <advance width="644"/>
  <unicode hex="20B2"/>
  <outline>
    <contour>
      <point x="70" y="349" type="curve" smooth="yes"/>
      <point x="70" y="111"/>
      <point x="166" y="-2"/>
      <point x="330" y="-2" type="curve" smooth="yes"/>
      <point x="473" y="-2"/>
      <point x="566" y="80"/>
      <point x="566" y="206" type="curve" smooth="yes"/>
      <point x="566" y="332" type="line"/>
      <point x="328" y="332" type="line"/>
      <point x="328" y="313" type="line"/>
      <point x="544" y="313" type="line"/>
      <point x="544" y="206" type="line" smooth="yes"/>
      <point x="544" y="81"/>
      <point x="445" y="18"/>
      <point x="330" y="18" type="curve" smooth="yes"/>
      <point x="200" y="18"/>
      <point x="94" y="103"/>
      <point x="94" y="328" type="curve" smooth="yes"/>
      <point x="94" y="370" type="line" smooth="yes"/>
      <point x="94" y="585"/>
      <point x="192" y="680"/>
      <point x="329" y="680" type="curve" smooth="yes"/>
      <point x="406" y="680"/>
      <point x="490" y="647"/>
      <point x="530" y="556" type="curve"/>
      <point x="549" y="565" type="line"/>
      <point x="515" y="642"/>
      <point x="438" y="700"/>
      <point x="329" y="700" type="curve" smooth="yes"/>
      <point x="169" y="700"/>
      <point x="70" y="589"/>
    </contour>
    <contour>
      <point x="273" y="-82" type="line"/>
      <point x="289" y="10" type="line"/>
      <point x="290" y="17" type="line"/>
      <point x="391" y="681" type="line"/>
      <point x="392" y="688" type="line"/>
      <point x="407" y="780" type="line"/>
      <point x="386" y="780" type="line"/>
      <point x="371" y="688" type="line"/>
      <point x="370" y="681" type="line"/>
      <point x="269" y="17" type="line"/>
      <point x="268" y="10" type="line"/>
      <point x="252" y="-82" type="line"/>
    </contour>
  </outline>
</glyph>
<glyph name="hryvnia" format="1">
  <advance width="618"/>
  <unicode hex="20B4"/>
  <outline>
    <contour>
      <point x="309" y="-12" type="curve" smooth="yes" name=""/>
      <point x="377" y="-12"/>
      <point x="450" y="18"/>
      <point x="511" y="86" type="curve"/>
      <point x="496" y="101" type="line"/>
      <point x="436" y="36"/>
      <point x="372" y="8"/>
      <point x="309" y="8" type="curve" smooth="yes"/>
      <point x="202" y="8"/>
      <point x="138" y="63"/>
      <point x="138" y="159" type="curve" smooth="yes"/>
      <point x="138" y="207"/>
      <point x="154" y="239"/>
      <point x="182" y="270" type="curve"/>
      <point x="555" y="270" type="line"/>
      <point x="555" y="289" type="line"/>
      <point x="326" y="289" type="line"/>
      <point x="209" y="289" type="line"/>
      <point x="209" y="291" type="line"/>
      <point x="298" y="345" type="line"/>
      <point x="434" y="427" type="line"/>
      <point x="555" y="427" type="line"/>
      <point x="555" y="446" type="line"/>
      <point x="449" y="446" type="line"/>
      <point x="469" y="470"/>
      <point x="482" y="502"/>
      <point x="482" y="548" type="curve" smooth="yes"/>
      <point x="482" y="649"/>
      <point x="409" y="710"/>
      <point x="302" y="710" type="curve" smooth="yes"/>
      <point x="237" y="710"/>
      <point x="170" y="684"/>
      <point x="114" y="623" type="curve"/>
      <point x="130" y="608" type="line"/>
      <point x="185" y="667"/>
      <point x="242" y="690"/>
      <point x="301" y="690" type="curve" smooth="yes"/>
      <point x="398" y="690"/>
      <point x="459" y="636"/>
      <point x="459" y="549" type="curve" smooth="yes"/>
      <point x="459" y="505"/>
      <point x="449" y="474"/>
      <point x="423" y="446" type="curve"/>
      <point x="45" y="446" type="line"/>
      <point x="45" y="427" type="line"/>
      <point x="280" y="427" type="line"/>
      <point x="397" y="427" type="line"/>
      <point x="397" y="425" type="line"/>
      <point x="308" y="371" type="line"/>
      <point x="172" y="289" type="line"/>
      <point x="45" y="289" type="line"/>
      <point x="45" y="270" type="line"/>
      <point x="155" y="270" type="line"/>
      <point x="134" y="242"/>
      <point x="115" y="208"/>
      <point x="115" y="159" type="curve" smooth="yes"/>
      <point x="115" y="52"/>
      <point x="192" y="-12"/>
    </contour>
  </outline>
</glyph>
<glyph name="cedi" format="1">
  <advance width="610"/>
  <unicode hex="20B5"/>
  <outline>
    <contour>
      <point x="263" y="-82" type="line"/>
      <point x="279" y="10" type="line"/>
      <point x="280" y="17" type="line"/>
      <point x="381" y="681" type="line"/>
      <point x="382" y="688" type="line"/>
      <point x="397" y="780" type="line"/>
      <point x="376" y="780" type="line"/>
      <point x="361" y="688" type="line"/>
      <point x="360" y="681" type="line"/>
      <point x="259" y="17" type="line"/>
      <point x="258" y="10" type="line"/>
      <point x="242" y="-82" type="line"/>
    </contour>
    <contour>
      <point x="70.0" y="349.0" type="curve" smooth="yes"/>
      <point x="70.0" y="86"/>
      <point x="182" y="-2"/>
      <point x="329.0" y="-2.0" type="curve" smooth="yes"/>
      <point x="436" y="-2"/>
      <point x="514.0" y="59.0"/>
      <point x="550.0" y="150.0" type="curve"/>
      <point x="531.0" y="158.0" type="line"/>
      <point x="497.0" y="71.0"/>
      <point x="428" y="18"/>
      <point x="329.0" y="18.0" type="curve" smooth="yes"/>
      <point x="180" y="18"/>
      <point x="94.0" y="117"/>
      <point x="94.0" y="328.0" type="curve" smooth="yes"/>
      <point x="94.0" y="370.0" type="line" smooth="yes"/>
      <point x="94.0" y="585.0"/>
      <point x="183" y="680"/>
      <point x="329.0" y="680.0" type="curve" smooth="yes"/>
      <point x="404" y="680"/>
      <point x="484" y="644"/>
      <point x="526.0" y="548.0" type="curve"/>
      <point x="545.0" y="557.0" type="line"/>
      <point x="509" y="638"/>
      <point x="435" y="700"/>
      <point x="329.0" y="700.0" type="curve" smooth="yes"/>
      <point x="164" y="700"/>
      <point x="70.0" y="589.0"/>
    </contour>
  </outline>
</glyph>
<glyph name="tenge" format="1">
  <advance width="602"/>
  <unicode hex="20B8"/>
  <outline>
    <contour>
      <point x="564" y="678" type="line" name="hr00"/>
      <point x="564" y="698" type="line"/>
      <point x="38" y="698" type="line"/>
      <point x="38" y="678" type="line"/>
    </contour>
    <contour>
      <point x="564" y="529" type="line"/>
      <point x="564" y="549" type="line"/>
      <point x="38" y="549" type="line"/>
      <point x="38" y="529" type="line"/>
      <point x="290" y="529" type="line"/>
      <point x="290" y="0" type="line"/>
      <point x="312" y="0" type="line"/>
      <point x="312" y="529" type="line"/>
    </contour>
  </outline>
</glyph>
<glyph name="rupeeindian" format="1">
  <advance width="611"/>
  <unicode hex="20B9"/>
  <outline>
    <contour>
      <point x="515" y="0" type="line" name=""/>
      <point x="259" y="335" type="line"/>
      <point x="259" y="322" type="line"/>
      <point x="292" y="322" type="line" smooth="yes"/>
      <point x="406" y="322"/>
      <point x="467" y="395"/>
      <point x="466" y="509" type="curve"/>
      <point x="580" y="509" type="line"/>
      <point x="580" y="529" type="line"/>
      <point x="466" y="529" type="line"/>
      <point x="462" y="605"/>
      <point x="429" y="654"/>
      <point x="373" y="676" type="curve"/>
      <point x="373" y="678" type="line"/>
      <point x="580" y="678" type="line"/>
      <point x="580" y="698" type="line"/>
      <point x="70" y="698" type="line"/>
      <point x="70" y="678" type="line"/>
      <point x="297" y="678" type="line" smooth="yes"/>
      <point x="391" y="678"/>
      <point x="443" y="612.0"/>
      <point x="443" y="531" type="curve" smooth="yes"/>
      <point x="443" y="529" type="line"/>
      <point x="70" y="529" type="line"/>
      <point x="70" y="509" type="line"/>
      <point x="443" y="509" type="line"/>
      <point x="443" y="497" type="line" smooth="yes"/>
      <point x="443" y="409"/>
      <point x="395" y="342"/>
      <point x="293" y="342" type="curve" smooth="yes"/>
      <point x="70" y="342" type="line"/>
      <point x="70" y="322" type="line"/>
      <point x="244" y="322" type="line"/>
      <point x="489" y="0" type="line"/>
    </contour>
  </outline>
</glyph>
<glyph name="numerosign" format="1">
  <advance width="1010"/>
  <unicode hex="2116"/>
  <outline>
    <contour>
      <point x="833" y="366" type="curve" smooth="yes"/>
      <point x="925" y="366"/>
      <point x="980" y="432"/>
      <point x="980" y="540" type="curve" smooth="yes"/>
      <point x="980" y="644"/>
      <point x="925" y="710"/>
      <point x="833" y="710" type="curve" smooth="yes"/>
      <point x="741" y="710"/>
      <point x="686" y="644"/>
      <point x="686" y="540" type="curve" smooth="yes"/>
      <point x="686" y="432"/>
      <point x="740" y="366"/>
    </contour>
    <contour>
      <point x="129" y="0" type="line"/>
      <point x="129" y="508" type="line"/>
      <point x="129" y="671" type="line"/>
      <point x="132" y="671" type="line"/>
      <point x="234" y="508" type="line"/>
      <point x="552" y="0" type="line"/>
      <point x="584" y="0" type="line"/>
      <point x="584" y="698" type="line" name=""/>
      <point x="563" y="698" type="line"/>
      <point x="563" y="190" type="line"/>
      <point x="563" y="27" type="line"/>
      <point x="560" y="27" type="line"/>
      <point x="458" y="190" type="line"/>
      <point x="140" y="698" type="line"/>
      <point x="108" y="698" type="line"/>
      <point x="108" y="0" type="line"/>
    </contour>
    <contour>
      <point x="833" y="383" type="curve" smooth="yes"/>
      <point x="750" y="383"/>
      <point x="707" y="446"/>
      <point x="707" y="522" type="curve" smooth="yes"/>
      <point x="707" y="556" type="line" smooth="yes"/>
      <point x="707" y="629"/>
      <point x="750" y="693"/>
      <point x="833" y="693" type="curve" smooth="yes" name=""/>
      <point x="916" y="693"/>
      <point x="959" y="629"/>
      <point x="959" y="556" type="curve" smooth="yes"/>
      <point x="959" y="522" type="line" smooth="yes"/>
      <point x="959" y="446"/>
      <point x="916" y="383"/>
    </contour>
    <contour>
      <point x="971" y="285" type="line"/>
      <point x="971" y="304" type="line"/>
      <point x="696" y="304" type="line"/>
      <point x="696" y="285" type="line"/>
    </contour>
  </outline>
</glyph>
<glyph name="trademark" format="1">
  <advance width="638"/>
  <unicode hex="2122"/>
  <outline>
    <contour>
      <point x="148" y="430" type="line" name=""/>
      <point x="148" y="682" type="line"/>
      <point x="254" y="682" type="line"/>
      <point x="254" y="698" type="line"/>
      <point x="23" y="698" type="line"/>
      <point x="23" y="682" type="line"/>
      <point x="129" y="682" type="line"/>
      <point x="129" y="430" type="line"/>
    </contour>
    <contour>
      <point x="342" y="430" type="line"/>
      <point x="342" y="600" type="line"/>
      <point x="342" y="670" type="line"/>
      <point x="344" y="670" type="line"/>
      <point x="437" y="494" type="line"/>
      <point x="530" y="670" type="line"/>
      <point x="532" y="670" type="line"/>
      <point x="532" y="600" type="line"/>
      <point x="532" y="430" type="line"/>
      <point x="549" y="430" type="line"/>
      <point x="549" y="698" type="line"/>
      <point x="527" y="698" type="line"/>
      <point x="438" y="529" type="line"/>
      <point x="436" y="529" type="line"/>
      <point x="348" y="698" type="line"/>
      <point x="325" y="698" type="line"/>
      <point x="325" y="430" type="line"/>
    </contour>
  </outline>
</glyph>
<glyph name="arrowupleftcorner" format="1">
  <advance width="746"/>
  <unicode hex="21B0"/>
  <outline>
    <contour>
      <point x="92" y="511" type="line" name="hr00"/>
      <point x="279" y="324" type="line"/>
      <point x="294" y="339" type="line"/>
      <point x="183" y="450" type="line"/>
      <point x="129" y="500" type="line"/>
      <point x="130" y="502" type="line"/>
      <point x="238" y="501" type="line"/>
      <point x="546" y="501" type="line"/>
      <point x="546" y="0" type="line"/>
      <point x="566" y="0" type="line"/>
      <point x="566" y="521" type="line"/>
      <point x="238" y="521" type="line"/>
      <point x="130" y="520" type="line"/>
      <point x="129" y="522" type="line"/>
      <point x="183" y="572" type="line"/>
      <point x="294" y="683" type="line"/>
      <point x="279" y="698" type="line"/>
    </contour>
  </outline>
</glyph>
<glyph name="arrowuprightcorner" format="1">
  <advance width="746"/>
  <unicode hex="21B1"/>
  <outline>
    <contour>
      <point x="654" y="523" type="line" name=""/>
      <point x="467" y="710" type="line"/>
      <point x="452" y="695" type="line"/>
      <point x="563" y="584" type="line"/>
      <point x="617" y="534" type="line"/>
      <point x="616" y="532" type="line"/>
      <point x="508" y="533" type="line"/>
      <point x="180" y="533" type="line"/>
      <point x="180" y="0" type="line"/>
      <point x="200" y="0" type="line"/>
      <point x="200" y="513" type="line"/>
      <point x="508" y="513" type="line"/>
      <point x="616" y="514" type="line"/>
      <point x="617" y="512" type="line"/>
      <point x="563" y="462" type="line"/>
      <point x="452" y="351" type="line"/>
      <point x="467" y="336" type="line"/>
    </contour>
  </outline>
</glyph>
<glyph name="arrowdownleftcorner" format="1">
  <advance width="746"/>
  <unicode hex="21B2"/>
  <outline>
    <contour>
      <point x="92" y="175" type="line" name=""/>
      <point x="279" y="-12" type="line"/>
      <point x="294" y="3" type="line"/>
      <point x="183" y="114" type="line"/>
      <point x="129" y="164" type="line"/>
      <point x="130" y="166" type="line"/>
      <point x="238" y="165" type="line"/>
      <point x="566" y="165" type="line"/>
      <point x="566" y="698" type="line"/>
      <point x="546" y="698" type="line"/>
      <point x="546" y="185" type="line"/>
      <point x="238" y="185" type="line"/>
      <point x="130" y="184" type="line"/>
      <point x="129" y="186" type="line"/>
      <point x="183" y="236" type="line"/>
      <point x="294" y="347" type="line"/>
      <point x="279" y="362" type="line"/>
    </contour>
  </outline>
</glyph>
<glyph name="arrowdownrightcorner" format="1">
  <advance width="746"/>
  <unicode hex="21B3"/>
  <outline>
    <contour>
      <point x="654" y="175" type="line" name=""/>
      <point x="467" y="362" type="line"/>
      <point x="452" y="347" type="line"/>
      <point x="563" y="236" type="line"/>
      <point x="617" y="186" type="line"/>
      <point x="616" y="184" type="line"/>
      <point x="508" y="185" type="line"/>
      <point x="200" y="185" type="line"/>
      <point x="200" y="698" type="line"/>
      <point x="180" y="698" type="line"/>
      <point x="180" y="165" type="line"/>
      <point x="508" y="165" type="line"/>
      <point x="616" y="166" type="line"/>
      <point x="617" y="164" type="line"/>
      <point x="563" y="114" type="line"/>
      <point x="452" y="3" type="line"/>
      <point x="467" y="-12" type="line"/>
    </contour>
  </outline>
</glyph>
<glyph name="partialdiff" format="1">
  <advance width="576"/>
  <unicode hex="2202"/>
  <outline>
    <contour>
      <point x="496" y="248" type="curve" smooth="yes" name="hr00"/>
      <point x="496" y="521"/>
      <point x="316" y="633"/>
      <point x="199" y="698" type="curve"/>
      <point x="160" y="698" type="line"/>
      <point x="290" y="635"/>
      <point x="403" y="543"/>
      <point x="447" y="425" type="curve"/>
      <point x="444" y="423" type="line"/>
      <point x="409" y="475"/>
      <point x="353" y="504"/>
      <point x="286" y="504" type="curve" smooth="yes"/>
      <point x="161" y="504"/>
      <point x="76" y="410"/>
      <point x="76" y="246" type="curve" smooth="yes"/>
      <point x="76" y="82"/>
      <point x="161" y="-12"/>
      <point x="286" y="-12" type="curve" smooth="yes"/>
      <point x="411" y="-12"/>
      <point x="496" y="83"/>
    </contour>
    <contour>
      <point x="286" y="7" type="curve" smooth="yes"/>
      <point x="177" y="7"/>
      <point x="99" y="90"/>
      <point x="99" y="223" type="curve" smooth="yes"/>
      <point x="99" y="269" type="line" smooth="yes"/>
      <point x="99" y="402"/>
      <point x="177" y="485"/>
      <point x="286" y="485" type="curve" smooth="yes"/>
      <point x="395" y="485"/>
      <point x="473" y="403"/>
      <point x="473" y="269" type="curve" smooth="yes"/>
      <point x="473" y="223" type="line" smooth="yes"/>
      <point x="473" y="89"/>
      <point x="395" y="7"/>
    </contour>
  </outline>
</glyph>
<glyph name="Delta" format="1">
  <advance width="600"/>
  <unicode hex="2206"/>
  <outline>
    <contour>
      <point x="39" y="0" type="line" name=""/>
      <point x="561" y="0" type="line"/>
      <point x="561" y="19" type="line"/>
      <point x="315" y="698" type="line"/>
      <point x="285" y="698" type="line"/>
      <point x="39" y="19" type="line"/>
    </contour>
    <contour>
      <point x="538" y="19" type="line"/>
      <point x="62" y="19" type="line"/>
      <point x="221" y="461" type="line"/>
      <point x="298" y="675" type="line"/>
      <point x="301" y="675" type="line"/>
      <point x="379" y="461" type="line"/>
    </contour>
  </outline>
</glyph>
<glyph name="product" format="1">
  <advance width="708"/>
  <unicode hex="220F"/>
  <outline>
    <contour>
      <point x="164" y="-200" type="line" name=""/>
      <point x="164" y="678" type="line"/>
      <point x="544" y="678" type="line"/>
      <point x="544" y="-200" type="line"/>
      <point x="566" y="-200" type="line"/>
      <point x="566" y="678" type="line"/>
      <point x="638" y="678" type="line"/>
      <point x="638" y="698" type="line"/>
      <point x="70" y="698" type="line"/>
      <point x="70" y="678" type="line"/>
      <point x="142" y="678" type="line"/>
      <point x="142" y="-200" type="line"/>
    </contour>
  </outline>
</glyph>
<glyph name="summation" format="1">
  <advance width="482"/>
  <unicode hex="2211"/>
  <outline>
    <contour>
      <point x="446" y="-179" type="line" name="hr00"/>
      <point x="43" y="-179" type="line"/>
      <point x="342" y="242" type="line"/>
      <point x="342" y="256" type="line"/>
      <point x="43" y="677" type="line"/>
      <point x="446" y="677" type="line"/>
      <point x="446" y="698" type="line"/>
      <point x="16" y="698" type="line"/>
      <point x="16" y="681" type="line"/>
      <point x="319" y="251" type="line"/>
      <point x="319" y="247" type="line"/>
      <point x="16" y="-183" type="line"/>
      <point x="16" y="-200" type="line"/>
      <point x="446" y="-200" type="line"/>
    </contour>
  </outline>
</glyph>
<glyph name="radical" format="1">
  <advance width="600"/>
  <unicode hex="221A"/>
  <outline>
    <contour>
      <point x="316" y="0" type="line" name=""/>
      <point x="535" y="698" type="line"/>
      <point x="514" y="698" type="line"/>
      <point x="356" y="192" type="line"/>
      <point x="305" y="27" type="line"/>
      <point x="302" y="27" type="line"/>
      <point x="255" y="192" type="line"/>
      <point x="165" y="506" type="line"/>
      <point x="28" y="506" type="line"/>
      <point x="28" y="487" type="line"/>
      <point x="149" y="487" type="line"/>
      <point x="289" y="0" type="line"/>
    </contour>
  </outline>
</glyph>
<glyph name="checkmark" format="1">
  <advance width="912"/>
  <unicode hex="2713"/>
  <outline>
    <contour>
      <point x="778" y="691" type="line" name="hr00"/>
      <point x="758" y="698" type="line"/>
      <point x="502" y="214" type="line"/>
      <point x="400" y="21" type="line"/>
      <point x="397" y="21" type="line"/>
      <point x="295" y="214" type="line"/>
      <point x="152" y="483" type="line"/>
      <point x="134" y="473" type="line"/>
      <point x="385" y="0" type="line"/>
      <point x="412" y="0" type="line"/>
    </contour>
  </outline>
</glyph>
<glyph name=".notdef" format="1">
  <advance width="472"/>
  <outline>
    <contour>
      <point x="32" y="0" type="line" name="hr00"/>
      <point x="440" y="0" type="line"/>
      <point x="440" y="780" type="line"/>
      <point x="32" y="780" type="line"/>
    </contour>
    <contour>
      <point x="48" y="16" type="line"/>
      <point x="48" y="764" type="line"/>
      <point x="424" y="764" type="line"/>
      <point x="424" y="16" type="line"/>
    </contour>
  </outline>
</glyph>
<glyph name="aogonek.alt01" format="1">
  <advance width="565"/>
  <outline>
    <contour>
      <point x="460" y="506" type="line" name=""/>
      <point x="439" y="506" type="line"/>
      <point x="439" y="428" type="line"/>
      <point x="436" y="428" type="line"/>
      <point x="415" y="472"/>
      <point x="361" y="518"/>
      <point x="272" y="518" type="curve" smooth="yes" name=""/>
      <point x="139" y="518"/>
      <point x="60" y="429"/>
      <point x="60" y="253" type="curve" smooth="yes"/>
      <point x="60" y="77"/>
      <point x="139" y="-12"/>
      <point x="272" y="-12" type="curve" smooth="yes"/>
      <point x="361" y="-12"/>
      <point x="415" y="34"/>
      <point x="436" y="78" type="curve"/>
      <point x="439" y="78" type="line"/>
      <point x="439" y="0" type="line"/>
      <point x="448" y="0" type="line"/>
      <point x="448" y="7" type="line"/>
      <point x="359" y="-49"/>
      <point x="340" y="-93"/>
      <point x="340" y="-130" type="curve" smooth="yes"/>
      <point x="340" y="-177"/>
      <point x="374" y="-202"/>
      <point x="419" y="-202" type="curve" smooth="yes"/>
      <point x="455" y="-202"/>
      <point x="481" y="-188"/>
      <point x="494" y="-170" type="curve"/>
      <point x="480" y="-159" type="line"/>
      <point x="470" y="-171"/>
      <point x="452" y="-184"/>
      <point x="420" y="-184" type="curve" smooth="yes"/>
      <point x="385" y="-184"/>
      <point x="361" y="-168"/>
      <point x="361" y="-127" type="curve" smooth="yes"/>
      <point x="361" y="-79"/>
      <point x="393" y="-51"/>
      <point x="460" y="0" type="curve"/>
    </contour>
    <contour>
      <point x="272" y="7" type="curve" smooth="yes"/>
      <point x="151" y="7"/>
      <point x="83" y="92"/>
      <point x="83" y="229" type="curve" smooth="yes"/>
      <point x="83" y="277" type="line" smooth="yes"/>
      <point x="83" y="414"/>
      <point x="151" y="499"/>
      <point x="272" y="499" type="curve" smooth="yes"/>
      <point x="360" y="499"/>
      <point x="439" y="444"/>
      <point x="439" y="363" type="curve" smooth="yes"/>
      <point x="439" y="143" type="line" smooth="yes"/>
      <point x="439" y="62"/>
      <point x="360" y="7"/>
    </contour>
    <contour>
      <point x="272.0" y="540.0" type="move" name="top"/>
    </contour>
  </outline>
</glyph>
<glyph name="brevegrave" format="1">
  <advance width="0"/>
  <outline>
    <contour>
      <point x="0" y="594" type="curve" smooth="yes" name="hr00"/>
      <point x="68" y="594"/>
      <point x="98" y="632"/>
      <point x="132" y="701" type="curve"/>
      <point x="116" y="708" type="line"/>
      <point x="100" y="681" type="line" smooth="yes"/>
      <point x="67" y="625"/>
      <point x="44" y="613"/>
      <point x="0" y="613" type="curve" smooth="yes"/>
      <point x="-44" y="613"/>
      <point x="-67" y="625"/>
      <point x="-100" y="681" type="curve" smooth="yes"/>
      <point x="-116" y="708" type="line"/>
      <point x="-132" y="701" type="line"/>
      <point x="-98" y="633"/>
      <point x="-68" y="594"/>
    </contour>
    <contour>
      <point x="9" y="697" type="line"/>
      <point x="24" y="707" type="line"/>
      <point x="-87" y="861" type="line"/>
      <point x="-106" y="849" type="line"/>
    </contour>
    <contour>
      <point x="0" y="540" type="move" name="_top"/>
    </contour>
  </outline>
</glyph>
<glyph name="caron.alt01" format="1">
  <advance width="600"/>
  <outline>
    <contour>
      <point x="312" y="603" type="line" name=""/>
      <point x="440" y="736" type="line"/>
      <point x="426" y="747" type="line"/>
      <point x="300" y="620" type="line"/>
      <point x="174" y="747" type="line"/>
      <point x="160" y="736" type="line"/>
      <point x="288" y="603" type="line"/>
    </contour>
    <contour>
      <point x="300" y="540" type="move" name="_top"/>
    </contour>
  </outline>
</glyph>
<glyph name="circumflex.alt01" format="1">
  <advance width="600"/>
  <outline>
    <contour>
      <point x="288" y="743" type="line" name="hr00"/>
      <point x="160" y="610" type="line"/>
      <point x="174" y="599" type="line"/>
      <point x="300" y="726" type="line"/>
      <point x="426" y="599" type="line"/>
      <point x="440" y="610" type="line"/>
      <point x="312" y="743" type="line"/>
    </contour>
    <contour>
      <point x="300" y="540" type="move" name="_top"/>
    </contour>
  </outline>
</glyph>
<glyph name="circumflexacute.case" format="1">
  <advance width="0"/>
  <outline>
    <contour>
      <point x="229" y="1029" type="line" name="hr00"/>
      <point x="210" y="1041" type="line"/>
      <point x="99" y="887" type="line"/>
      <point x="114" y="877" type="line"/>
    </contour>
    <contour>
      <point x="-12" y="915" type="line"/>
      <point x="-140" y="782" type="line"/>
      <point x="-126" y="771" type="line"/>
      <point x="0" y="898" type="line"/>
      <point x="126" y="771" type="line"/>
      <point x="140" y="782" type="line"/>
      <point x="12" y="915" type="line"/>
    </contour>
    <contour>
      <point x="0" y="698" type="move" name="_top"/>
    </contour>
  </outline>
</glyph>
<glyph name="circumflexacute" format="1">
  <advance width="0"/>
  <outline>
    <contour>
      <point x="229" y="849" type="line" name="hr00"/>
      <point x="210" y="861" type="line"/>
      <point x="99" y="707" type="line"/>
      <point x="114" y="697" type="line"/>
    </contour>
    <contour>
      <point x="-12" y="735" type="line"/>
      <point x="-140" y="602" type="line"/>
      <point x="-126" y="591" type="line"/>
      <point x="0" y="718" type="line"/>
      <point x="126" y="591" type="line"/>
      <point x="140" y="602" type="line"/>
      <point x="12" y="735" type="line"/>
    </contour>
    <contour>
      <point x="0" y="540" type="move" name="_top"/>
    </contour>
  </outline>
</glyph>
<glyph name="circumflexbreve.case" format="1">
  <advance width="0"/>
  <outline>
    <contour>
      <point x="-12" y="885" type="line" name="hr00"/>
      <point x="-150" y="772" type="line"/>
      <point x="-138" y="759" type="line"/>
      <point x="0" y="868" type="line"/>
      <point x="138" y="759" type="line"/>
      <point x="150" y="772" type="line"/>
      <point x="12" y="885" type="line"/>
    </contour>
    <contour>
      <point x="0" y="917" type="curve" smooth="yes"/>
      <point x="68" y="917"/>
      <point x="98" y="955"/>
      <point x="132" y="1024" type="curve"/>
      <point x="116" y="1031" type="line"/>
      <point x="100" y="1004" type="line" smooth="yes"/>
      <point x="67" y="948"/>
      <point x="44" y="936"/>
      <point x="0" y="936" type="curve" smooth="yes"/>
      <point x="-44" y="936"/>
      <point x="-67" y="948"/>
      <point x="-100" y="1004" type="curve" smooth="yes"/>
      <point x="-116" y="1031" type="line"/>
      <point x="-132" y="1024" type="line"/>
      <point x="-98" y="956"/>
      <point x="-68" y="917"/>
    </contour>
    <contour>
      <point x="0" y="698" type="move" name="_top"/>
    </contour>
  </outline>
</glyph>
<glyph name="circumflexhook.case" format="1">
  <advance width="0"/>
  <outline>
    <contour>
      <point x="39" y="1009" type="line" name="hr00"/>
      <point x="180" y="1009" type="line"/>
      <point x="103" y="883" type="line"/>
      <point x="119" y="875" type="line"/>
      <point x="168" y="951" type="line" smooth="yes"/>
      <point x="194" y="991"/>
      <point x="199" y="1001"/>
      <point x="199" y="1009" type="curve" smooth="yes"/>
      <point x="199" y="1020"/>
      <point x="191" y="1027"/>
      <point x="176" y="1027" type="curve" smooth="yes"/>
      <point x="39" y="1027" type="line"/>
    </contour>
    <contour>
      <point x="-12" y="915" type="line"/>
      <point x="-140" y="782" type="line"/>
      <point x="-126" y="771" type="line"/>
      <point x="0" y="898" type="line"/>
      <point x="126" y="771" type="line"/>
      <point x="140" y="782" type="line"/>
      <point x="12" y="915" type="line"/>
    </contour>
    <contour>
      <point x="0" y="698" type="move" name="_top"/>
    </contour>
  </outline>
</glyph>
<glyph name="dieresis.alt01" format="1">
  <advance width="600"/>
  <outline>
    <contour>
      <point x="209" y="642" type="curve" smooth="yes" name="hr00"/>
      <point x="226" y="642"/>
      <point x="232" y="652"/>
      <point x="232" y="663" type="curve" smooth="yes"/>
      <point x="232" y="670" type="line" smooth="yes"/>
      <point x="232" y="681"/>
      <point x="226" y="691"/>
      <point x="209" y="691" type="curve" smooth="yes"/>
      <point x="192" y="691"/>
      <point x="186" y="681"/>
      <point x="186" y="670" type="curve" smooth="yes"/>
      <point x="186" y="663" type="line" smooth="yes"/>
      <point x="186" y="652"/>
      <point x="192" y="642"/>
    </contour>
    <contour>
      <point x="391" y="642" type="curve" smooth="yes"/>
      <point x="408" y="642"/>
      <point x="414" y="652"/>
      <point x="414" y="663" type="curve" smooth="yes"/>
      <point x="414" y="670" type="line" smooth="yes"/>
      <point x="414" y="681"/>
      <point x="408" y="691"/>
      <point x="391" y="691" type="curve" smooth="yes"/>
      <point x="374" y="691"/>
      <point x="368" y="681"/>
      <point x="368" y="670" type="curve" smooth="yes"/>
      <point x="368" y="663" type="line" smooth="yes"/>
      <point x="368" y="652"/>
      <point x="374" y="642"/>
    </contour>
    <contour>
      <point x="300" y="540" type="move" name="_top"/>
    </contour>
  </outline>
</glyph>
<glyph name="dieresisgrave" format="1">
  <advance width="0"/>
  <outline>
    <contour>
      <point x="-7" y="697" type="line" name="hr00"/>
      <point x="8" y="707" type="line"/>
      <point x="-103" y="861" type="line"/>
      <point x="-122" y="849" type="line"/>
    </contour>
    <contour>
      <point x="-91" y="634" type="curve" smooth="yes"/>
      <point x="-74" y="634"/>
      <point x="-68" y="644"/>
      <point x="-68" y="655" type="curve" smooth="yes"/>
      <point x="-68" y="662" type="line" smooth="yes"/>
      <point x="-68" y="673"/>
      <point x="-74" y="683"/>
      <point x="-91" y="683" type="curve" smooth="yes"/>
      <point x="-108" y="683"/>
      <point x="-114" y="673"/>
      <point x="-114" y="662" type="curve" smooth="yes"/>
      <point x="-114" y="655" type="line" smooth="yes"/>
      <point x="-114" y="644"/>
      <point x="-108" y="634"/>
    </contour>
    <contour>
      <point x="91" y="634" type="curve" smooth="yes"/>
      <point x="108" y="634"/>
      <point x="114" y="644"/>
      <point x="114" y="655" type="curve" smooth="yes"/>
      <point x="114" y="662" type="line" smooth="yes"/>
      <point x="114" y="673"/>
      <point x="108" y="683"/>
      <point x="91" y="683" type="curve" smooth="yes"/>
      <point x="74" y="683"/>
      <point x="68" y="673"/>
      <point x="68" y="662" type="curve" smooth="yes"/>
      <point x="68" y="655" type="line" smooth="yes"/>
      <point x="68" y="644"/>
      <point x="74" y="634"/>
    </contour>
    <contour>
      <point x="0" y="540" type="move" name="_top"/>
    </contour>
  </outline>
</glyph>
<glyph name="eight.tosf" format="1">
  <advance width="600"/>
  <outline>
    <contour>
      <point x="300" y="-12" type="curve" smooth="yes"/>
      <point x="435" y="-12"/>
      <point x="520" y="64"/>
      <point x="520" y="180" type="curve" smooth="yes"/>
      <point x="520" y="279"/>
      <point x="464" y="349"/>
      <point x="374" y="364" type="curve"/>
      <point x="374" y="368" type="line"/>
      <point x="449" y="383"/>
      <point x="496" y="445"/>
      <point x="496" y="535" type="curve" smooth="yes"/>
      <point x="496" y="642"/>
      <point x="420" y="710"/>
      <point x="300" y="710" type="curve" smooth="yes"/>
      <point x="180" y="710"/>
      <point x="104" y="642"/>
      <point x="104" y="535" type="curve" smooth="yes"/>
      <point x="104" y="445"/>
      <point x="151" y="383"/>
      <point x="226" y="368" type="curve"/>
      <point x="226" y="364" type="line"/>
      <point x="136" y="349"/>
      <point x="80" y="279"/>
      <point x="80" y="180" type="curve" smooth="yes"/>
      <point x="80" y="64"/>
      <point x="165" y="-12"/>
    </contour>
    <contour>
      <point x="300" y="8" type="curve" smooth="yes"/>
      <point x="181" y="8"/>
      <point x="104" y="74"/>
      <point x="104" y="169" type="curve" smooth="yes"/>
      <point x="104" y="195" type="line" smooth="yes"/>
      <point x="104" y="290"/>
      <point x="181" y="356"/>
      <point x="300" y="356" type="curve" smooth="yes"/>
      <point x="419" y="356"/>
      <point x="496" y="290"/>
      <point x="496" y="195" type="curve" smooth="yes"/>
      <point x="496" y="169" type="line" smooth="yes"/>
      <point x="496" y="74"/>
      <point x="419" y="8"/>
    </contour>
    <contour>
      <point x="300" y="376" type="curve" smooth="yes"/>
      <point x="196" y="376"/>
      <point x="128" y="434"/>
      <point x="128" y="521" type="curve" smooth="yes" name=""/>
      <point x="128" y="545" type="line" smooth="yes"/>
      <point x="128" y="632"/>
      <point x="196" y="690"/>
      <point x="300" y="690" type="curve" smooth="yes"/>
      <point x="404" y="690"/>
      <point x="472" y="632"/>
      <point x="472" y="545" type="curve" smooth="yes"/>
      <point x="472" y="521" type="line" smooth="yes"/>
      <point x="472" y="434"/>
      <point x="404" y="376"/>
    </contour>
  </outline>
</glyph>
<glyph name="five.tosf" format="1">
  <advance width="600"/>
  <outline>
    <contour>
      <point x="296" y="-176" type="curve" smooth="yes" name=""/>
      <point x="420" y="-176"/>
      <point x="499" y="-94"/>
      <point x="499" y="39" type="curve" smooth="yes"/>
      <point x="499" y="170"/>
      <point x="427" y="249"/>
      <point x="303" y="249" type="curve" smooth="yes"/>
      <point x="231" y="249"/>
      <point x="182" y="231"/>
      <point x="142" y="179" type="curve"/>
      <point x="139" y="180" type="line"/>
      <point x="163" y="506" type="line"/>
      <point x="475" y="506" type="line"/>
      <point x="475" y="526" type="line"/>
      <point x="145" y="526" type="line"/>
      <point x="119" y="162" type="line"/>
      <point x="142" y="159" type="line"/>
      <point x="183" y="207"/>
      <point x="221" y="229"/>
      <point x="303" y="229" type="curve" smooth="yes"/>
      <point x="415" y="229"/>
      <point x="475" y="157"/>
      <point x="475" y="52" type="curve" smooth="yes"/>
      <point x="475" y="24" type="line" smooth="yes"/>
      <point x="475" y="-81"/>
      <point x="410" y="-156"/>
      <point x="296" y="-156" type="curve" smooth="yes"/>
      <point x="209" y="-156"/>
      <point x="150" y="-126"/>
      <point x="107" y="-58" type="curve"/>
      <point x="89" y="-69" type="line"/>
      <point x="135" y="-142"/>
      <point x="202" y="-176"/>
    </contour>
  </outline>
</glyph>
<glyph name="fraction.alt01" format="1">
  <advance width="147"/>
  <outline>
    <contour>
      <point x="140.0" y="434.0" type="line"/>
      <point x="309.0" y="698.0" type="line"/>
      <point x="287.0" y="698.0" type="line"/>
      <point x="118.0" y="434.0" type="line"/>
    </contour>
    <contour>
      <point x="-138.0" y="0.0" type="line" name="hr00"/>
      <point x="25.0" y="254.0" type="line"/>
      <point x="3.0" y="254.0" type="line"/>
      <point x="-160.0" y="0.0" type="line"/>
    </contour>
  </outline>
</glyph>
<glyph name="fraction.rvrn" format="1">
  <advance width="147"/>
  <outline>
    <contour>
      <point x="140.0" y="434.0" type="line"/>
      <point x="309.0" y="698.0" type="line"/>
      <point x="287.0" y="698.0" type="line"/>
      <point x="118.0" y="434.0" type="line"/>
    </contour>
    <contour>
      <point x="-138.0" y="0.0" type="line" name=""/>
      <point x="25.0" y="254.0" type="line"/>
      <point x="3.0" y="254.0" type="line"/>
      <point x="-160.0" y="0.0" type="line"/>
    </contour>
  </outline>
</glyph>
<glyph name="g.alt02" format="1">
  <advance width="527"/>
  <outline>
    <contour>
      <point x="501" y="-65" type="curve" smooth="yes"/>
      <point x="501" y="7"/>
      <point x="453" y="53"/>
      <point x="338" y="53" type="curve" smooth="yes"/>
      <point x="203" y="53" type="line"/>
      <point x="133" y="53"/>
      <point x="116" y="81"/>
      <point x="116" y="109" type="curve" smooth="yes"/>
      <point x="116" y="146"/>
      <point x="147" y="171"/>
      <point x="207" y="187" type="curve"/>
      <point x="227" y="183"/>
      <point x="243" y="180"/>
      <point x="263" y="180" type="curve" smooth="yes"/>
      <point x="366" y="180"/>
      <point x="436" y="247"/>
      <point x="436" y="349" type="curve" smooth="yes"/>
      <point x="436" y="409"/>
      <point x="411" y="463"/>
      <point x="371" y="485" type="curve"/>
      <point x="371" y="487" type="line"/>
      <point x="501" y="487" type="line"/>
      <point x="501" y="506" type="line"/>
      <point x="335" y="506" type="line"/>
      <point x="314" y="514"/>
      <point x="290" y="518"/>
      <point x="263" y="518" type="curve" smooth="yes" name=""/>
      <point x="156" y="518"/>
      <point x="90" y="451"/>
      <point x="90" y="349" type="curve" smooth="yes"/>
      <point x="90" y="273"/>
      <point x="124" y="222"/>
      <point x="181" y="197" type="curve"/>
      <point x="181" y="194" type="line"/>
      <point x="137" y="181"/>
      <point x="96" y="154"/>
      <point x="96" y="108" type="curve" name=""/>
      <point x="96" y="76"/>
      <point x="112" y="52"/>
      <point x="149" y="41" type="curve"/>
      <point x="149" y="38" type="line"/>
      <point x="87" y="18"/>
      <point x="50" y="-22"/>
      <point x="50" y="-82" type="curve" smooth="yes"/>
      <point x="50" y="-160"/>
      <point x="113" y="-212"/>
      <point x="262" y="-212" type="curve" smooth="yes"/>
      <point x="414" y="-212"/>
      <point x="501" y="-166"/>
    </contour>
    <contour>
      <point x="263" y="199" type="curve" smooth="yes"/>
      <point x="170" y="199"/>
      <point x="114" y="256"/>
      <point x="114" y="330" type="curve" smooth="yes" name=""/>
      <point x="114" y="368" type="line" smooth="yes"/>
      <point x="114" y="442"/>
      <point x="168" y="499"/>
      <point x="263" y="499" type="curve" smooth="yes"/>
      <point x="358" y="499"/>
      <point x="412" y="442"/>
      <point x="412" y="368" type="curve" smooth="yes"/>
      <point x="412" y="330" type="line" smooth="yes"/>
      <point x="412" y="256"/>
      <point x="358" y="199"/>
    </contour>
    <contour>
      <point x="479" y="-65" type="curve" smooth="yes"/>
      <point x="479" y="-154"/>
      <point x="400" y="-193"/>
      <point x="287" y="-193" type="curve" smooth="yes"/>
      <point x="238" y="-193" type="line" smooth="yes"/>
      <point x="136" y="-193"/>
      <point x="72" y="-149"/>
      <point x="72" y="-83" type="curve" smooth="yes"/>
      <point x="72" y="-19"/>
      <point x="117" y="17"/>
      <point x="180" y="33" type="curve"/>
      <point x="335" y="33" type="line" smooth="yes"/>
      <point x="443" y="33"/>
      <point x="479" y="-4"/>
    </contour>
    <contour>
      <point x="263.0" y="540.0" type="move" name="top"/>
    </contour>
  </outline>
</glyph>
<glyph name="hungarumlaut.case" format="1">
  <advance width="600"/>
  <outline>
    <contour>
      <point x="335" y="919" type="line" name="hr00"/>
      <point x="316" y="931" type="line"/>
      <point x="205" y="777" type="line"/>
      <point x="220" y="767" type="line"/>
    </contour>
    <contour>
      <point x="495" y="919" type="line"/>
      <point x="476" y="931" type="line"/>
      <point x="365" y="777" type="line"/>
      <point x="380" y="767" type="line"/>
    </contour>
    <contour>
      <point x="300" y="698" type="move" name="_top"/>
    </contour>
  </outline>
</glyph>
<glyph name="macron.alt01" format="1">
  <advance width="600"/>
  <outline>
    <contour>
      <point x="171" y="658" type="line" name="hr00"/>
      <point x="429" y="658" type="line"/>
      <point x="429" y="676" type="line"/>
      <point x="171" y="676" type="line"/>
    </contour>
    <contour>
      <point x="300" y="540" type="move" name="_top"/>
    </contour>
  </outline>
</glyph>
<glyph name="naira.alt01" format="1">
  <advance width="665"/>
  <outline>
    <contour>
      <point x="111.0" y="698.0" type="line"/>
      <point x="111" y="0" type="line"/>
      <point x="131.0" y="0.0" type="line"/>
      <point x="131.0" y="501.0" type="line"/>
      <point x="131.0" y="670.0" type="line"/>
      <point x="134.0" y="670.0" type="line"/>
      <point x="232.0" y="501.0" type="line"/>
      <point x="524.0" y="0.0" type="line"/>
      <point x="554" y="0" type="line"/>
      <point x="554.0" y="698.0" type="line"/>
      <point x="534.0" y="698.0" type="line"/>
      <point x="534.0" y="197.0" type="line"/>
      <point x="534.0" y="28.0" type="line"/>
      <point x="531.0" y="28.0" type="line"/>
      <point x="432.0" y="197.0" type="line"/>
      <point x="141.0" y="698.0" type="line"/>
    </contour>
    <contour>
      <point x="16" y="261" type="line"/>
      <point x="117" y="261" type="line"/>
      <point x="125" y="261" type="line"/>
      <point x="540" y="261" type="line"/>
      <point x="548" y="261" type="line"/>
      <point x="649" y="261" type="line"/>
      <point x="649" y="280" type="line"/>
      <point x="548" y="280" type="line"/>
      <point x="540" y="280" type="line"/>
      <point x="125" y="280" type="line"/>
      <point x="117" y="280" type="line"/>
      <point x="16" y="280" type="line"/>
    </contour>
    <contour>
      <point x="16" y="418" type="line"/>
      <point x="117" y="418" type="line"/>
      <point x="125" y="418" type="line"/>
      <point x="540" y="418" type="line"/>
      <point x="548" y="418" type="line"/>
      <point x="649" y="418" type="line"/>
      <point x="649" y="437" type="line"/>
      <point x="548" y="437" type="line"/>
      <point x="540" y="437" type="line"/>
      <point x="125" y="437" type="line"/>
      <point x="117" y="437" type="line"/>
      <point x="16" y="437" type="line"/>
    </contour>
  </outline>
</glyph>
<glyph name="naira.rvrn" format="1">
  <advance width="665"/>
  <outline>
    <contour>
      <point x="111.0" y="698.0" type="line"/>
      <point x="111" y="0" type="line"/>
      <point x="131.0" y="0.0" type="line"/>
      <point x="131.0" y="501.0" type="line"/>
      <point x="131.0" y="670.0" type="line"/>
      <point x="134.0" y="670.0" type="line"/>
      <point x="232.0" y="501.0" type="line"/>
      <point x="524.0" y="0.0" type="line"/>
      <point x="554" y="0" type="line"/>
      <point x="554.0" y="698.0" type="line"/>
      <point x="534.0" y="698.0" type="line"/>
      <point x="534.0" y="197.0" type="line"/>
      <point x="534.0" y="28.0" type="line"/>
      <point x="531.0" y="28.0" type="line"/>
      <point x="432.0" y="197.0" type="line"/>
      <point x="141.0" y="698.0" type="line"/>
    </contour>
    <contour>
      <point x="16" y="261" type="line"/>
      <point x="117" y="261" type="line"/>
      <point x="125" y="261" type="line"/>
      <point x="540" y="261" type="line"/>
      <point x="548" y="261" type="line"/>
      <point x="649" y="261" type="line"/>
      <point x="649" y="280" type="line"/>
      <point x="548" y="280" type="line"/>
      <point x="540" y="280" type="line"/>
      <point x="125" y="280" type="line"/>
      <point x="117" y="280" type="line"/>
      <point x="16" y="280" type="line"/>
    </contour>
    <contour>
      <point x="16" y="418" type="line"/>
      <point x="117" y="418" type="line"/>
      <point x="125" y="418" type="line"/>
      <point x="540" y="418" type="line"/>
      <point x="548" y="418" type="line"/>
      <point x="649" y="418" type="line"/>
      <point x="649" y="437" type="line"/>
      <point x="548" y="437" type="line"/>
      <point x="540" y="437" type="line"/>
      <point x="125" y="437" type="line"/>
      <point x="117" y="437" type="line"/>
      <point x="16" y="437" type="line"/>
    </contour>
  </outline>
</glyph>
<glyph name="nine.tosf" format="1">
  <advance width="600"/>
  <outline>
    <contour>
      <point x="303" y="538" type="curve" smooth="yes" name=""/>
      <point x="174" y="538"/>
      <point x="92" y="452"/>
      <point x="92" y="321" type="curve" smooth="yes"/>
      <point x="92" y="190"/>
      <point x="175" y="109"/>
      <point x="304" y="109" type="curve" smooth="yes"/>
      <point x="386" y="109"/>
      <point x="452" y="144"/>
      <point x="487" y="216" type="curve"/>
      <point x="490" y="215" type="line"/>
      <point x="463" y="53"/>
      <point x="376" y="-67"/>
      <point x="223" y="-164" type="curve"/>
      <point x="255" y="-164" type="line"/>
      <point x="400" y="-72"/>
      <point x="516" y="78"/>
      <point x="516" y="300" type="curve" smooth="yes"/>
      <point x="516" y="433"/>
      <point x="455" y="538"/>
    </contour>
    <contour>
      <point x="304" y="129" type="curve" smooth="yes"/>
      <point x="186" y="129"/>
      <point x="116" y="207"/>
      <point x="116" y="308" type="curve" smooth="yes"/>
      <point x="116" y="339" type="line" smooth="yes"/>
      <point x="116" y="441"/>
      <point x="187" y="518"/>
      <point x="304" y="518" type="curve" smooth="yes"/>
      <point x="420" y="518"/>
      <point x="492" y="440"/>
      <point x="492" y="336" type="curve" smooth="yes"/>
      <point x="492" y="308" type="line" smooth="yes"/>
      <point x="492" y="207"/>
      <point x="423" y="129"/>
    </contour>
  </outline>
</glyph>
<glyph name="seven.tosf" format="1">
  <advance width="600"/>
  <outline>
    <contour>
      <point x="222" y="-164" type="line" name=""/>
      <point x="500" y="506" type="line"/>
      <point x="500" y="526" type="line"/>
      <point x="87" y="526" type="line"/>
      <point x="87" y="340" type="line"/>
      <point x="109" y="340" type="line"/>
      <point x="109" y="506" type="line"/>
      <point x="477" y="506" type="line"/>
      <point x="198" y="-164" type="line"/>
    </contour>
  </outline>
</glyph>
<glyph name="two.tosf" format="1">
  <advance width="600"/>
  <outline>
    <contour>
      <point x="89" y="0" type="line" name=""/>
      <point x="516" y="0" type="line"/>
      <point x="516" y="20" type="line"/>
      <point x="117" y="20" type="line"/>
      <point x="313" y="156" type="line" smooth="yes"/>
      <point x="401" y="217"/>
      <point x="467" y="280"/>
      <point x="467" y="368" type="curve" smooth="yes"/>
      <point x="467" y="477"/>
      <point x="397" y="538"/>
      <point x="281" y="538" type="curve" smooth="yes"/>
      <point x="186" y="538"/>
      <point x="125" y="483"/>
      <point x="92" y="408" type="curve"/>
      <point x="112" y="399" type="line"/>
      <point x="141" y="468"/>
      <point x="197" y="518"/>
      <point x="281" y="518" type="curve" smooth="yes"/>
      <point x="386" y="518"/>
      <point x="443" y="461"/>
      <point x="443" y="379" type="curve" smooth="yes"/>
      <point x="443" y="358" type="line" smooth="yes"/>
      <point x="443" y="285"/>
      <point x="377" y="226"/>
      <point x="299" y="171" type="curve" smooth="yes"/>
      <point x="89" y="22" type="line"/>
    </contour>
  </outline>
</glyph>
<glyph name="won.alt01" format="1">
  <advance width="900"/>
  <outline>
    <contour>
      <point x="44.0" y="698.0" type="line"/>
      <point x="230.0" y="0.0" type="line"/>
      <point x="260.0" y="0.0" type="line"/>
      <point x="388.0" y="457.0" type="line"/>
      <point x="448.0" y="674.0" type="line"/>
      <point x="451.0" y="674.0" type="line"/>
      <point x="512.0" y="457.0" type="line"/>
      <point x="640.0" y="0.0" type="line"/>
      <point x="670.0" y="0.0" type="line"/>
      <point x="856.0" y="698.0" type="line"/>
      <point x="834.0" y="698.0" type="line"/>
      <point x="714.0" y="248.0" type="line"/>
      <point x="656.0" y="30.0" type="line"/>
      <point x="653.0" y="30.0" type="line"/>
      <point x="592" y="248" type="line"/>
      <point x="466.0" y="698.0" type="line"/>
      <point x="434.0" y="698.0" type="line"/>
      <point x="308.0" y="248.0" type="line"/>
      <point x="247.0" y="30.0" type="line"/>
      <point x="244.0" y="30.0" type="line"/>
      <point x="186.0" y="248.0" type="line"/>
      <point x="67.0" y="698.0" type="line"/>
    </contour>
    <contour>
      <point x="41" y="256" type="line"/>
      <point x="169" y="256" type="line"/>
      <point x="177" y="256" type="line"/>
      <point x="724" y="256" type="line"/>
      <point x="732" y="256" type="line"/>
      <point x="859" y="256" type="line"/>
      <point x="859" y="275" type="line"/>
      <point x="736" y="275" type="line"/>
      <point x="728" y="275" type="line"/>
      <point x="172" y="275" type="line"/>
      <point x="164" y="275" type="line"/>
      <point x="41" y="275" type="line"/>
    </contour>
    <contour>
      <point x="41" y="432" type="line"/>
      <point x="41" y="413" type="line"/>
      <point x="127" y="413" type="line"/>
      <point x="135" y="413" type="line"/>
      <point x="765" y="413" type="line"/>
      <point x="773" y="413" type="line"/>
      <point x="859" y="413" type="line"/>
      <point x="859" y="432" type="line"/>
      <point x="778" y="432" type="line"/>
      <point x="770" y="432" type="line"/>
      <point x="130" y="432" type="line"/>
      <point x="122" y="432" type="line"/>
    </contour>
  </outline>
</glyph>
<glyph name="won.rvrn" format="1">
  <advance width="900"/>
  <outline>
    <contour>
      <point x="44.0" y="698.0" type="line"/>
      <point x="230.0" y="0.0" type="line"/>
      <point x="260.0" y="0.0" type="line"/>
      <point x="388.0" y="457.0" type="line"/>
      <point x="448.0" y="674.0" type="line"/>
      <point x="451.0" y="674.0" type="line"/>
      <point x="512.0" y="457.0" type="line"/>
      <point x="640.0" y="0.0" type="line"/>
      <point x="670.0" y="0.0" type="line"/>
      <point x="856.0" y="698.0" type="line"/>
      <point x="834.0" y="698.0" type="line"/>
      <point x="714.0" y="248.0" type="line"/>
      <point x="656.0" y="30.0" type="line"/>
      <point x="653.0" y="30.0" type="line"/>
      <point x="592" y="248" type="line"/>
      <point x="466.0" y="698.0" type="line"/>
      <point x="434.0" y="698.0" type="line"/>
      <point x="308.0" y="248.0" type="line"/>
      <point x="247.0" y="30.0" type="line"/>
      <point x="244.0" y="30.0" type="line"/>
      <point x="186.0" y="248.0" type="line"/>
      <point x="67.0" y="698.0" type="line"/>
    </contour>
    <contour>
      <point x="41" y="256" type="line"/>
      <point x="169" y="256" type="line"/>
      <point x="177" y="256" type="line"/>
      <point x="724" y="256" type="line"/>
      <point x="732" y="256" type="line"/>
      <point x="859" y="256" type="line"/>
      <point x="859" y="275" type="line"/>
      <point x="736" y="275" type="line"/>
      <point x="728" y="275" type="line"/>
      <point x="172" y="275" type="line"/>
      <point x="164" y="275" type="line"/>
      <point x="41" y="275" type="line"/>
    </contour>
    <contour>
      <point x="41" y="432" type="line"/>
      <point x="41" y="413" type="line"/>
      <point x="127" y="413" type="line"/>
      <point x="135" y="413" type="line"/>
      <point x="765" y="413" type="line"/>
      <point x="773" y="413" type="line"/>
      <point x="859" y="413" type="line"/>
      <point x="859" y="432" type="line"/>
      <point x="778" y="432" type="line"/>
      <point x="770" y="432" type="line"/>
      <point x="130" y="432" type="line"/>
      <point x="122" y="432" type="line"/>
    </contour>
  </outline>
</glyph>
<glyph name="zero.alt02" format="1">
  <advance width="600"/>
  <outline>
    <contour>
      <point x="300" y="-12" type="curve" smooth="yes" name=""/>
      <point x="446" y="-12"/>
      <point x="529" y="93"/>
      <point x="529" y="349" type="curve" smooth="yes"/>
      <point x="529" y="605"/>
      <point x="446" y="710"/>
      <point x="300" y="710" type="curve" smooth="yes"/>
      <point x="154" y="710"/>
      <point x="71" y="605"/>
      <point x="71" y="349" type="curve" smooth="yes"/>
      <point x="71" y="93"/>
      <point x="154" y="-12"/>
    </contour>
    <contour>
      <point x="300" y="8" type="curve" smooth="yes"/>
      <point x="213" y="8"/>
      <point x="153" y="52"/>
      <point x="121" y="139" type="curve"/>
      <point x="300" y="335" type="line"/>
      <point x="484" y="536" type="line"/>
      <point x="486" y="536" type="line"/>
      <point x="499" y="496"/>
      <point x="505" y="442"/>
      <point x="505" y="381" type="curve"/>
      <point x="505" y="317" type="line" smooth="yes"/>
      <point x="505" y="112"/>
      <point x="433" y="8"/>
    </contour>
    <contour>
      <point x="300" y="690" type="curve" smooth="yes"/>
      <point x="387" y="690"/>
      <point x="447" y="646"/>
      <point x="479" y="559" type="curve"/>
      <point x="300" y="363" type="line"/>
      <point x="116" y="161" type="line"/>
      <point x="114" y="161" type="line"/>
      <point x="101" y="202"/>
      <point x="95" y="255"/>
      <point x="95" y="317" type="curve"/>
      <point x="95" y="381" type="line" smooth="yes"/>
      <point x="95" y="586"/>
      <point x="167" y="690"/>
    </contour>
  </outline>
</glyph>
<glyph name="zero.tosf.alt02" format="1">
  <advance width="600"/>
  <outline>
    <contour>
      <point x="300" y="-12" type="curve" smooth="yes" name=""/>
      <point x="431" y="-12"/>
      <point x="528" y="81"/>
      <point x="528" y="263" type="curve" smooth="yes"/>
      <point x="528" y="445"/>
      <point x="431" y="538"/>
      <point x="300" y="538" type="curve" smooth="yes"/>
      <point x="169" y="538"/>
      <point x="72" y="445"/>
      <point x="72" y="263" type="curve" smooth="yes"/>
      <point x="72" y="81"/>
      <point x="169" y="-12"/>
    </contour>
    <contour>
      <point x="300" y="7" type="curve" smooth="yes"/>
      <point x="236" y="7"/>
      <point x="181" y="33"/>
      <point x="145" y="80" type="curve"/>
      <point x="305" y="255" type="line"/>
      <point x="465" y="431" type="line"/>
      <point x="466" y="431" type="line"/>
      <point x="490" y="393"/>
      <point x="505" y="344"/>
      <point x="505" y="287" type="curve" smooth="yes"/>
      <point x="505" y="239" type="line" smooth="yes"/>
      <point x="505" y="97"/>
      <point x="419" y="7"/>
    </contour>
    <contour>
      <point x="300" y="519" type="curve" smooth="yes"/>
      <point x="364" y="519"/>
      <point x="419" y="493"/>
      <point x="455" y="446" type="curve"/>
      <point x="294" y="270" type="line"/>
      <point x="135" y="95" type="line"/>
      <point x="134" y="95" type="line"/>
      <point x="110" y="133"/>
      <point x="95" y="182"/>
      <point x="95" y="239" type="curve" smooth="yes"/>
      <point x="95" y="287" type="line" smooth="yes"/>
      <point x="95" y="429"/>
      <point x="181" y="519"/>
    </contour>
  </outline>
</glyph>
